<svg width="216" height="211" viewBox="0 0 216 211" fill="none" xmlns="http://www.w3.org/2000/svg">
<path d="M0 15.2754C0 6.99112 6.71573 0.275391 15 0.275391H200C208.284 0.275391 215 6.99112 215 15.2754V158.275C215 166.56 208.284 173.275 200 173.275H15C6.71572 173.275 0 166.56 0 158.275V15.2754Z" fill="black"/>
<path d="M37.4192 0.234076L9.31005 0.413116L7.37642 1.48735C4.65502 2.99128 2.2917 5.39041 1.03843 7.93277L0 10.0812V161.907L0.931005 163.876C2.64978 167.457 5.62183 170.25 9.13101 171.503C11.5659 172.362 14.538 172.434 48.6271 172.47H80.1022L79.8873 173.831C79.7799 174.547 79.2786 177.877 78.7773 181.243C78.1328 185.504 77.5957 187.867 76.9869 189.121C76.0201 191.126 72.4035 194.957 71.2935 195.208C70.8638 195.28 69.0018 195.423 67.1397 195.494C63.4157 195.638 62.0908 196.103 60.0498 198.037C57.8655 200.042 57.3642 201.51 57.1852 206.237L57.0419 210.426L157.913 210.247L157.877 206.308C157.841 201.904 157.483 200.651 155.585 198.466C153.652 196.282 152.004 195.638 147.707 195.459C144.556 195.351 143.733 195.172 142.659 194.492C140.976 193.417 138.97 190.947 138.039 188.834C137.431 187.438 136.285 181.35 135.354 174.368L135.103 172.47H166.757C184.124 172.434 199.915 172.327 201.777 172.148C207.686 171.682 211.66 169.032 214.059 163.948L215.205 161.548L215.313 86.7459C215.42 17.8157 215.384 11.8358 214.811 10.117C213.594 6.35722 210.514 2.70482 207.22 1.20089C205.609 0.448924 204.928 0.413116 189.603 0.198269C171.448 -0.0881943 79.386 -0.0523864 37.4192 0.234076ZM206.325 2.34674C209.225 3.74325 211.589 6.14237 212.914 9.007L213.952 11.3345V160.617L213.2 162.623C212.233 165.273 209.19 168.531 206.504 169.856L204.463 170.859L169.3 171.038C149.963 171.145 134.065 171.324 133.921 171.467C133.635 171.754 134.53 178.844 135.569 184.824C136.392 189.371 137.431 191.412 140.403 194.348C142.515 196.425 143.625 196.783 147.815 196.819C151.038 196.819 152.434 197.321 154.117 199.004C156.015 200.901 156.659 202.62 156.659 206.022V208.994H58.4742L58.6175 205.449C58.7249 202.226 58.8323 201.797 59.7991 200.4C61.6969 197.643 63.0218 197.07 67.8559 196.783C72.5467 196.533 73.048 196.318 75.483 193.632C77.524 191.376 78.5625 189.479 79.1354 187.044C79.8515 183.857 81.5345 171.682 81.248 171.431C81.1406 171.324 65.3135 171.181 46.0847 171.109L11.1004 171.002L8.91616 169.999C5.80087 168.531 3.97467 166.741 2.39913 163.59L1.07424 160.868L0.895197 11.7642L1.64716 9.75897C2.50655 7.39565 5.26376 4.20875 7.59127 2.84805C8.48646 2.34674 10.0978 1.80962 11.2079 1.66639C12.3179 1.52316 56.1825 1.37993 108.677 1.34412L204.105 1.30831L206.325 2.34674Z" fill="#7B2CBF"/>
<path d="M11.6373 4.49516C8.3788 4.99647 5.83644 7.25237 4.47574 10.8332L3.68797 12.9458L3.90281 77.9013C4.04604 113.638 4.22508 142.964 4.33251 143.072C4.61897 143.394 198.447 143.573 205.286 143.286L211.087 143.036L211.016 77.0777C210.908 13.1249 210.872 11.1196 210.228 9.90215C208.939 7.53883 207.864 6.42879 205.752 5.28293L203.639 4.17289L108.462 4.2087C56.0749 4.24451 12.5325 4.38774 11.6373 4.49516ZM204.928 6.28555C206.647 7.18075 208.402 9.00695 209.189 10.7973C209.798 12.158 209.834 15.8463 209.941 77.1135L210.085 142.033H5.1919L5.37093 11.5135L6.15871 10.0454C7.0181 8.39822 8.73687 6.82267 10.384 6.10651C11.2434 5.71263 29.1116 5.64101 107.531 5.6052C201.455 5.6052 203.639 5.6052 204.928 6.28555Z" fill="#5FE1C7"/>
<path d="M12.6043 16.7774C12.2821 22.077 12.2821 118.221 12.6043 127.603L12.8192 134.872H202.028L202.243 131.9C202.565 128.176 202.565 14.0918 202.279 13.3398C202.064 12.8027 193.398 12.7669 107.424 12.7669H12.8192L12.6043 16.7774ZM181.653 13.8412H201.419V70.8473C201.419 102.215 201.312 129.214 201.169 130.825L200.954 133.798H13.4279V13.877L14.2515 13.7695C14.6812 13.6979 48.0899 13.6979 88.4454 13.7337C128.837 13.8053 170.768 13.8412 181.653 13.8412Z" fill="#42C8C6"/>
<path d="M146.741 15.8822L128.729 15.9896V28.1643H152.721V42.4516C152.721 54.8054 152.792 56.7748 153.258 56.9538C153.544 57.0612 155.943 57.1329 158.593 57.1329H163.427L173.024 47.3215L182.62 37.4743H184.84C186.953 37.4743 187.096 37.4027 187.633 36.4359C188.6 34.5023 191.501 34.6097 192.432 36.6508C193.327 38.5844 192.396 40.339 190.247 40.8761C189.46 41.0909 189.066 40.9119 188.135 40.0167C187.168 39.0499 186.81 38.9067 185.019 38.9067H182.978L163.642 58.2429H152.721V65.0464H165.791L184.053 46.7844H198.913V31.8883C198.913 22.7931 198.77 17.0639 198.591 17.1355C198.376 17.1713 190.605 23.6525 181.26 31.4586C165.003 45.0656 164.251 45.746 164.036 47.1067C163.821 48.6106 162.46 50.0071 161.279 50.0071C158.593 50.0071 157.197 46.9634 158.88 44.815C159.596 43.884 159.775 43.8481 161.637 44.0272C163.642 44.242 163.642 44.242 165.791 42.4158C166.972 41.4132 174.062 35.4333 181.546 29.1311C189.03 22.8289 195.547 17.3145 196.048 16.849L196.943 15.9896H178.86V21.6831L174.886 25.5145C171.591 28.773 170.983 29.525 171.162 30.2054C171.377 31.1722 170.553 32.9984 169.729 33.3206C168.548 33.7503 167.366 33.4997 166.507 32.6403C165.253 31.4228 165.325 29.8115 166.65 28.5582L167.688 27.5914L167.617 21.7189L167.581 15.8106H166.149C165.361 15.8106 156.624 15.8464 146.741 15.8822ZM166.686 26.8036L165.612 28.0569C164.788 28.9879 164.537 29.5966 164.537 30.7783C164.573 35.8272 171.735 35.9704 172.308 30.9215C172.487 29.2743 172.701 29.0237 176.211 25.7294L179.935 22.256V17.0639H186.989C192.969 17.0639 193.971 17.1355 193.542 17.5652C193.076 17.9591 184.124 25.5145 166.614 40.2674C163.391 42.953 163.033 43.1678 162.174 42.8455C160.849 42.3442 159.059 42.9529 157.913 44.3136C155.872 46.7844 157.304 50.5442 160.455 50.9739C162.998 51.2962 165.253 49.47 165.253 47.0709C165.253 46.4263 166.184 45.4595 168.906 43.2036C170.947 41.5206 178.108 35.5407 184.84 29.8831C191.572 24.2612 197.266 19.5346 197.445 19.3914C197.731 19.2481 197.839 23.187 197.839 32.4254V45.7102H183.301L165.54 63.9722H153.795V59.3171H164.358L174.205 49.47C184.697 38.9783 185.091 38.6918 186.595 40.3748C189.281 43.4185 193.9 41.7713 193.9 37.7608C193.9 34.2516 189.316 32.6761 186.881 35.3617C186.488 35.7914 185.807 36.042 184.876 36.042C184.124 36.042 183.05 36.2569 182.513 36.5433C181.976 36.8298 177.357 41.27 172.236 46.3905L162.926 55.7364H153.795V41.9861C153.795 34.4307 153.688 27.9853 153.58 27.663C153.401 27.1617 152.184 27.0901 143.769 27.0901C138.505 27.0901 133.205 26.9826 131.988 26.8752L129.804 26.6246V17.0639H166.686V26.8036Z" fill="url(#paint0_linear_287_1277)"/>
<path d="M134.817 22.3991L132.131 22.614L134.279 22.9362C135.461 23.1153 141.477 23.2227 147.672 23.2227L158.879 23.1869L158.629 27.1258C158.307 32.0314 158.772 41.8786 159.238 39.9808C159.596 38.4769 159.703 25.1205 159.381 23.5808L159.13 22.5424L155.335 22.2917C151.002 22.041 138.827 22.1127 134.817 22.3991Z" fill="#6CD3D3"/>
<path d="M18.0831 16.1329C18.0831 16.3835 46.1565 40.0167 50.1312 43.0962C51.4203 44.063 51.7783 44.1704 53.2465 44.0272C54.6788 43.8481 55.0369 43.9556 55.8246 44.7433C57.1137 46.0324 57.0779 47.608 55.7172 48.9687C55.1085 49.5774 54.2849 50.0071 53.7478 50.0071C52.3871 50.0071 50.9906 48.5748 50.7041 46.9276C50.4893 45.6027 49.7373 44.9224 33.8386 31.6377C24.6718 23.9748 16.9015 17.5652 16.5792 17.3861C15.9705 17.0639 15.9347 17.8516 15.9347 31.9241V46.7844H30.7949L49.057 65.0464H62.1268V58.2429H50.8473L41.4299 48.5748L31.9766 38.9067H29.9714C28.2884 38.9067 27.8229 39.0499 26.9635 39.8735C24.1705 42.5591 20.16 38.5844 22.9172 35.863C24.1705 34.5739 25.4596 34.7171 26.8919 36.2211C27.9303 37.3311 28.2526 37.4743 29.9714 37.4743H31.8692L41.788 47.3573L51.7067 57.2761L56.6124 57.0254C59.3338 56.8822 61.6971 56.6674 61.8404 56.5957C61.9836 56.4883 62.1268 50.1503 62.1268 42.4516V28.5224L67.4264 28.4866C70.3268 28.4866 74.8386 28.4866 77.4526 28.5224L82.1792 28.5582V15.9896H47.4456V21.8979C47.4456 27.6988 47.4456 27.7704 48.3408 28.6656C49.5941 29.9189 49.5583 31.7809 48.305 32.7835C47.0517 33.7503 45.512 33.7503 44.581 32.7477C43.8648 31.9599 43.7932 31.8167 43.7216 29.9547C43.6858 29.0237 43.0054 28.2359 39.8543 25.2639L35.9871 21.6473V15.9896H27.0351C22.1294 15.9896 18.0831 16.0612 18.0831 16.1329ZM34.9128 21.9695L38.6727 25.6578C40.7495 27.6988 42.4325 29.6324 42.4325 29.9189C42.4325 34.3233 47.1591 36.2211 49.8805 32.8909C50.6683 31.8883 50.4176 29.4176 49.415 28.2359C48.5556 27.1975 48.5198 26.9826 48.5198 22.1128V17.0639H81.105V27.0901H73.2631C68.9661 27.0901 64.4543 27.1975 63.2369 27.3049L61.0526 27.5556V55.7364H51.7067L42.146 46.0682L32.5853 36.3643L30.6159 36.1495C29.3268 36.0062 28.2884 35.6481 27.6797 35.111C26.3906 34.0368 25.4596 33.7861 23.9914 34.0368C21.0552 34.6097 19.8735 38.6202 21.9862 40.7329C23.5617 42.2726 25.8176 42.2726 27.8229 40.6612C28.539 40.0883 29.5059 39.6228 29.9714 39.6228C30.5801 39.6228 33.4089 42.2368 40.6421 49.47L50.4893 59.3171H61.0526V63.9722H49.7373L40.6421 54.8412L31.5111 45.7102H17.0089V32.3896C17.0089 19.7853 17.0447 19.1407 17.6535 19.642C17.9757 19.9285 24.1347 25.049 31.3321 31.0289C48.6273 45.3879 49.1286 45.8534 49.4508 47.2499C50.167 50.5442 53.2465 52.0123 55.9679 50.3652C57.257 49.5774 57.8299 48.4316 57.8299 46.6054C57.8299 44.242 54.822 42.0219 52.7094 42.8097C51.85 43.1678 50.8473 42.4158 36.9897 30.7783C28.8613 23.9748 21.8788 18.1023 21.4849 17.7442C20.8045 17.0639 20.9478 17.0639 27.8587 17.0639H34.9128V21.9695Z" fill="url(#paint1_linear_287_1277)"/>
<path d="M58.188 22.399L55.5024 22.6139L55.2876 26.3737C55.0728 30.6706 55.2518 38.5484 55.6457 40.1597C56.0754 41.9143 56.5051 32.282 56.2186 27.2331L55.9679 22.8287L57.3286 22.9719C59.8352 23.33 73.0125 23.2942 76.4501 22.9719L79.8518 22.6497L76.8081 22.399C73.2273 22.1125 62.0553 22.1125 58.188 22.399Z" fill="#6CD3D3"/>
<path d="M37.0611 20.8593L39.138 22.8288C40.248 23.903 42.0384 25.5502 43.0769 26.517C45.8341 29.0235 46.0131 28.7371 46.0131 21.6829V15.9895H37.0611V20.8593ZM44.9389 26.9109L41.5371 23.5091C38.3144 20.2864 38.1354 20.0357 38.1354 18.6034V17.0637H44.9389V26.9109Z" fill="url(#paint2_linear_287_1277)"/>
<path d="M83.9693 31.9241C83.9693 40.6971 84.1125 47.8586 84.2915 47.8586C84.4348 47.8586 87.4426 44.8866 90.916 41.27L97.2182 34.6813V15.9896H91.1308V27.663L92.2051 28.7014C93.4225 29.8831 93.6016 31.2796 92.6706 32.4254C91.0234 34.3591 87.9081 33.2848 87.9081 30.7783C87.9081 29.8473 88.1588 29.3102 88.9824 28.594L90.0566 27.663V15.9896H83.9693V31.9241ZM88.8391 22.1128C88.6243 26.8036 88.5527 27.2691 87.7291 28.2359C85.9387 30.3486 86.6907 33.4281 89.1972 34.2516C92.9212 35.4691 95.9291 31.1722 93.4584 28.2359C92.599 27.1975 92.5632 26.9826 92.5632 22.1128V17.0639H96.1439V34.2158L90.5937 39.8735L85.0793 45.5311L85.0435 31.2796V17.0639H89.0898L88.8391 22.1128Z" fill="url(#paint3_linear_287_1277)"/>
<path d="M98.6508 25.7292L98.615 35.5047L92.3486 41.9502C88.9111 45.4951 85.939 48.682 85.7242 49.0401C85.4377 49.5414 85.6884 50.0069 87.1923 51.5467L89.0185 53.4087L92.3128 49.9353C94.139 48.0375 97.6482 44.3135 100.191 41.6637L104.738 36.8654V15.9895H98.6508V25.7292ZM103.664 36.3999L96.4666 43.9196C92.5277 48.0733 89.1618 51.4392 89.0185 51.4392C88.8753 51.4392 88.3382 50.9737 87.8011 50.4366L86.8342 49.434L93.2438 42.6305L99.6893 35.8628L99.7251 26.4454V17.0637H103.664V36.3999Z" fill="url(#paint4_linear_287_1277)"/>
<path d="M106.17 37.8324L99.2234 45.1014C95.4278 49.0761 91.8828 52.7285 91.3457 53.194C90.8444 53.6953 90.4147 54.2324 90.4147 54.4473C90.4147 54.6621 91.2741 55.7005 92.3125 56.739L94.1745 58.6726L106.779 45.8176L119.383 32.9983L119.419 24.4761V15.9896H113.69V21.3608C113.69 25.8726 113.761 26.8036 114.227 26.9826C115.015 27.2691 115.874 29.0595 115.588 29.8473C114.8 32.0673 112.329 32.8193 110.897 31.2796C109.751 30.0621 109.858 28.4507 111.183 27.3407L112.257 26.4097V15.9896H106.17V37.8324ZM111.183 21.325C111.183 25.5503 111.183 25.5503 110.109 26.6604C109.25 27.5914 109.035 28.0927 109.035 29.4534C109.035 30.7783 109.214 31.2796 110.073 32.139C112.114 34.1442 115.767 33.1774 116.519 30.4202C116.913 29.0237 116.411 27.3049 115.373 26.4097C114.871 26.0158 114.764 25.1922 114.764 21.504V17.0638H118.345V32.4254L94.1745 57.1687L91.7038 54.6979L96.0007 50.1861C98.3282 47.7154 101.837 44.0272 103.735 42.0219L107.209 38.3695L107.244 27.6988V17.0638H111.183V21.325Z" fill="url(#paint5_linear_287_1277)"/>
<path d="M121.21 33.6071L108.426 46.677L95.643 59.711L106.779 70.8473L117.665 59.8185C123.645 53.7311 130.842 46.4263 133.635 43.5617L138.756 38.3695V55.7364C138.756 65.2971 138.756 79.2621 138.756 86.8176V100.568L139.83 101.57C141.943 103.54 140.797 106.584 138.004 106.584C135.318 106.584 134.315 103.755 136.177 101.535L137.144 100.353L137.359 41.9503L122.033 57.4551L106.708 72.9241L84.1487 50.6516L84.0412 72.0647C84.0054 83.8097 84.0054 93.4778 84.0412 93.5136C84.1128 93.5495 85.5452 93.6927 87.2997 93.8359L90.415 94.0866V79.1905L112.616 101.391V88.1425L128.729 72.0289V113.387H150.93L150.751 30.1337L139.758 30.0263L128.729 29.9547V33.249L128.694 36.5792L122.391 43.2036C118.954 46.856 114.406 51.5468 112.329 53.6953L108.534 57.5267L108.641 59.2813C108.713 60.7853 108.57 61.1433 107.746 61.7879C105.92 63.2202 103.485 62.4324 102.805 60.1765C102.267 58.3861 104.094 56.4883 106.421 56.4167C107.245 56.3809 109.071 54.6263 117.164 46.1398L126.939 35.863V15.9896H121.21V33.6071ZM125.865 35.3617L116.34 45.3163C107.495 54.5905 106.708 55.3067 105.383 55.4857C104.488 55.5931 103.557 56.0586 102.912 56.6674C100.226 59.2455 102.053 63.6141 105.812 63.6141C108.247 63.6141 109.751 62.0027 109.751 59.3888C109.751 58.1355 110.36 57.4193 119.777 47.5364L129.804 36.973V31.0289H149.856V47.787C149.856 57.0254 149.749 66.7652 149.605 69.4508L149.391 74.3564H147.135C145.094 74.3564 144.879 74.4281 144.771 75.1442C144.592 76.3259 144.055 60.5704 143.805 46.0682L143.59 33.7145L136.965 33.4997L130.341 39.8377C126.688 43.311 123.573 46.3547 123.43 46.6054C123.287 46.856 121.568 48.8254 119.563 50.9381C117.593 53.0866 115.337 55.5573 114.55 56.4525L113.153 58.0639L114.585 56.918C116.089 55.7364 130.412 41.3416 134.566 36.8298L137.001 34.2158L143.482 33.7861L143.267 38.9425C143.124 41.7713 142.874 47.3931 142.695 51.4394C142.515 55.4857 142.265 61.0359 142.157 63.7931C142.05 66.5503 141.871 70.0237 141.764 71.4918L141.549 74.1416L140.868 72.7809C140.26 71.4918 140.188 70.2743 140.152 56.4883C140.116 48.2883 140.009 40.3032 139.866 38.6918L139.651 35.7914L123.394 52.4062C114.442 61.5014 106.922 68.9853 106.743 68.9853C106.529 68.9853 104.273 66.9084 101.73 64.3661L97.1111 59.7468L109.715 46.9276L122.284 34.0726V17.0639H125.865V35.3617ZM136.249 59.6752V74.3564H135.354C134.888 74.3564 134.351 74.6429 134.172 74.9652C133.922 75.3591 133.743 73.8551 133.564 70.1311C133.42 67.1233 133.17 64.6883 132.991 64.6883C132.812 64.6883 132.668 65.0464 132.668 65.4403C132.668 67.1591 130.735 74.3564 130.269 74.3564C129.947 74.3564 129.804 73.7835 129.804 72.4228C129.804 71.3128 129.625 70.346 129.374 70.2027C129.123 70.0595 125.65 73.318 120.243 78.8682L111.542 87.7844V98.8848L89.3408 76.684V92.6185H85.0439V53.0508L95.7146 63.7215C101.551 69.5582 106.529 74.3564 106.708 74.3564C106.922 74.3564 113.511 67.7678 121.389 59.711C129.267 51.6543 135.819 45.0298 135.998 45.0298C136.142 44.994 136.249 51.5826 136.249 59.6752ZM143.411 97.8106L143.554 102.466L143.805 96.1992C143.912 92.7617 144.055 89.0377 144.091 87.9634C144.127 86.746 144.234 86.173 144.449 86.4595C144.95 87.2473 145.129 86.3163 145.595 80.6228L146.025 75.3949L149.677 75.6097L149.641 77.7582C149.605 78.9398 149.57 87.2115 149.534 96.0918L149.498 112.313H129.804V75.4307H130.878C131.809 75.4307 131.952 75.2875 132.024 74.4281C132.131 72.6019 132.597 83.1294 132.668 89.5748C132.704 93.1198 132.847 97.0586 132.991 98.3477C133.205 100.496 133.241 100.317 133.492 95.8412C133.886 88.8944 134.495 80.2647 134.781 77.7582C134.924 76.111 135.139 75.5739 135.64 75.5023C136.213 75.3949 136.249 76.1468 136.249 87.4263V99.4578L135.139 100.818C132.74 103.862 134.459 107.658 138.219 107.658C139.902 107.658 140.761 107.156 141.441 105.867C142.301 104.184 142.122 102.466 140.904 101.105L139.83 99.8516V75.4307H142.695L142.766 73.8909C142.802 73.0674 142.945 77.042 143.088 82.7713C143.196 88.4647 143.375 95.2324 143.411 97.8106Z" fill="#FF7A00"/>
<path d="M128.729 56.7032C128.443 56.8106 127.763 57.3119 127.225 57.8132C126.438 58.5294 126.223 59.0665 126.223 60.1765C126.223 61.6089 125.972 61.8953 116.268 71.8141L106.349 81.9477L100.37 75.8604C94.8193 70.2744 94.3538 69.7014 94.3538 68.484C94.3538 67.5888 94.0673 66.8726 93.3512 66.0848C92.456 65.0822 92.0979 64.939 90.5582 64.9748C89.0901 64.9748 88.6604 65.1538 87.8368 66.0848C86.6909 67.3739 86.5119 69.1285 87.3713 70.7757C87.8726 71.7425 88.6962 72.1722 91.2027 72.6377C91.5608 72.7093 95.1416 75.9678 99.1879 79.8709L106.564 86.9966L108.355 85.2421C109.357 84.2752 114.37 79.0831 119.527 73.7477C128.479 64.4377 128.98 63.9722 130.233 63.9722C131.093 63.9722 131.88 63.6857 132.561 63.1128C133.42 62.3608 133.563 61.9669 133.563 60.4272C133.563 58.9591 133.384 58.4578 132.632 57.7058C131.737 56.8106 129.768 56.2735 128.729 56.7032ZM131.88 58.8158C132.847 59.9259 132.883 60.7495 131.916 61.9669C131.343 62.6831 130.878 62.8979 129.839 62.8979C128.515 62.8979 128.121 63.256 118.524 73.1748C113.046 78.8683 108.104 83.953 107.531 84.5617L106.528 85.6359L99.2595 78.3669C92.1695 71.277 91.9905 71.1338 90.5224 71.1338C89.3765 71.1338 88.8752 70.9547 88.4813 70.346C87.1564 68.484 88.3023 66.1207 90.5224 66.1207C91.1311 66.1207 91.8473 66.2639 92.0621 66.4071C92.8141 66.9084 93.3512 68.3407 93.1721 69.3434C92.9931 70.2386 93.566 70.9189 99.7608 76.863L106.528 83.38L114.872 74.822C127.619 61.7879 127.297 62.146 127.297 60.7137C127.297 59.353 127.763 58.5652 128.908 57.9565C129.839 57.4193 130.878 57.7416 131.88 58.8158Z" fill="#7B2CBF"/>
<path d="M128.801 59.3888C127.834 60.3556 128.586 61.8237 130.054 61.8237C131.093 61.8237 131.773 60.642 131.236 59.6752C130.806 58.8874 129.481 58.7084 128.801 59.3888ZM130.341 60.3914C130.448 60.5704 130.305 60.7495 130.018 60.7495C129.696 60.7495 129.446 60.5704 129.446 60.3914C129.446 60.1765 129.589 60.0333 129.768 60.0333C129.983 60.0333 130.233 60.1765 130.341 60.3914Z" fill="url(#paint6_linear_287_1277)"/>
<path d="M89.7344 67.4097C88.7676 68.0901 88.7675 69.1643 89.7702 69.8447C91.0593 70.7757 92.6348 69.3434 91.847 67.911C91.3457 66.98 90.5938 66.801 89.7344 67.4097ZM91.0592 68.6988C90.9518 68.9495 90.7728 69.1643 90.5938 69.1643C90.4147 69.1643 90.2357 68.9495 90.1641 68.6988C90.0566 68.484 90.2715 68.2691 90.5938 68.2691C90.916 68.2691 91.1309 68.484 91.0592 68.6988Z" fill="url(#paint7_linear_287_1277)"/>
<path d="M115.194 68.8419L106.528 77.2925L102.84 73.7833C100.835 71.8139 98.2924 69.5222 97.2182 68.627L95.2487 67.0157L96.4662 68.5554C97.1107 69.379 99.6531 72.1362 102.088 74.6427L106.528 79.1903L111.828 73.7833C118.81 66.6218 124.217 60.7851 124.002 60.5702C123.931 60.4628 119.956 64.1868 115.194 68.8419Z" fill="#7B2CBF"/>
<path d="M121.532 74.1056C118.453 77.0776 114.335 81.303 112.401 83.4872C110.467 85.6357 108.319 88.0348 107.603 88.8226C106.851 89.6462 106.636 90.0401 107.066 89.8252C108.283 89.1807 117.987 79.4051 122.105 74.7143C124.253 72.2436 126.33 69.8803 126.724 69.4147C128.443 67.4811 126.724 69.0209 121.532 74.1056Z" fill="#7B2CBF"/>
<path d="M91.7754 76.0036C92.3126 77.042 102.733 87.5337 104.738 89.0735L106.349 90.2909L105.561 89.2167C103.699 86.6027 90.8803 74.3564 91.7754 76.0036Z" fill="#7B2CBF"/>
<path d="M169.192 22.0768C169.192 27.0899 169.3 28.1641 169.693 28.1641C169.98 28.1641 171.914 26.5528 173.99 24.5475L177.786 20.9309V15.9895H169.192V22.0768ZM176.712 18.7825C176.712 20.4654 176.676 20.5012 173.489 23.4375L170.266 26.4095V17.0637H176.712V18.7825Z" fill="url(#paint8_linear_287_1277)"/>
<path d="M111.506 28.5581C110.968 29.5607 111.613 31.0288 112.58 31.0288C113.403 31.0288 114.406 30.1337 114.406 29.4175C114.406 28.7013 113.403 27.8061 112.616 27.8061C112.222 27.8061 111.756 28.1642 111.506 28.5581ZM113.332 29.1668C113.332 29.6323 112.902 29.9546 112.544 29.7398C112.186 29.5249 112.508 28.8804 113.01 28.8804C113.189 28.8804 113.332 29.0236 113.332 29.1668Z" fill="url(#paint9_linear_287_1277)"/>
<path d="M45.3687 29.6681C43.9722 31.0646 45.9774 33.2489 47.4456 31.924C48.663 30.8139 48.1617 29.2384 46.5504 29.2384C46.1207 29.2384 45.6194 29.4174 45.3687 29.6681ZM46.6936 30.8497C46.801 31.2794 46.2281 31.172 46.0849 30.7065C46.0132 30.4559 46.0849 30.3126 46.2997 30.4559C46.4787 30.5633 46.6578 30.7423 46.6936 30.8497Z" fill="url(#paint10_linear_287_1277)"/>
<path d="M89.3404 29.7756C89.0897 30.062 88.9823 30.6708 89.1256 31.2079C89.3046 31.924 89.591 32.1031 90.4146 32.1031C91.6679 32.1031 92.2766 31.2079 91.8111 30.0262C91.4531 29.0952 90.0207 28.952 89.3404 29.7756ZM91.1308 30.6708C91.1308 30.8498 90.8801 31.0288 90.5937 31.0288C90.3072 31.0288 90.0566 30.8498 90.0566 30.6708C90.0566 30.4559 90.3072 30.3127 90.5937 30.3127C90.8801 30.3127 91.1308 30.4559 91.1308 30.6708Z" fill="url(#paint11_linear_287_1277)"/>
<path d="M167.043 29.9546C166.22 31.4943 167.366 32.7118 169.013 32.1031C169.98 31.745 170.23 30.4201 169.478 29.6681C168.798 28.9878 167.473 29.1668 167.043 29.9546ZM168.44 30.8498C168.547 31.2795 167.974 31.1721 167.831 30.7066C167.76 30.4559 167.831 30.3127 168.046 30.4559C168.225 30.5633 168.404 30.7424 168.44 30.8498Z" fill="url(#paint12_linear_287_1277)"/>
<path d="M68.1425 32.7117C69.539 34.2515 73.263 38.0829 76.4141 41.234L82.1792 46.9633V29.9545H65.6359L68.1425 32.7117ZM81.1049 44.0986L74.8385 37.8323C71.401 34.3947 68.5722 31.4585 68.5722 31.3152C68.5722 31.1362 71.401 31.0288 74.8385 31.0288H81.1049V44.0986Z" fill="#FF7A00"/>
<path d="M64.1319 50.0427C63.9887 60.3554 63.9529 78.7964 63.9887 91.0069L64.0961 113.208L91.9546 113.315L119.777 113.387V95.7336L118.882 94.91C116.841 93.0122 117.665 90.3982 120.386 90.1833C121.604 90.0759 121.962 90.2192 122.606 91.0427C123.645 92.3676 123.573 93.5851 122.284 94.7668L121.21 95.7694V131.291H127.404L127.19 113.996C127.046 104.506 126.939 92.0812 126.939 86.3877V76.0034L114.8 88.5004L114.764 96.6288V104.793H71.0787L71.0428 78.7248C71.007 64.4017 71.007 52.5135 71.0428 52.2986C71.0787 52.048 70.5415 51.3318 69.8254 50.6157C68.3931 49.1833 68.214 48.0375 69.3241 46.641C69.897 45.9248 70.3625 45.71 71.4725 45.71C74.1939 45.71 75.2682 48.4314 73.4062 50.6515L72.511 51.7257V103.003H111.721L104.201 95.4829H82.1791V48.7536L76.3782 43.0244C73.1555 39.8733 69.145 35.9344 67.4621 34.2873L64.3468 31.3152L64.1319 50.0427ZM81.1049 74.3563H79.8874C78.9922 74.3563 78.5983 74.5353 78.5267 74.965C78.276 76.075 77.918 70.1309 77.6673 60.9999C77.5241 56.1301 77.345 52.1912 77.2734 52.2986C77.166 52.406 76.8079 56.3807 76.414 61.179C75.3756 74.6785 75.4472 74.3563 74.4446 74.3563H73.5852V52.4777L74.4446 51.3318C75.6621 49.7205 75.8769 48.5388 75.2324 47.0349C73.7642 43.4899 68.8944 43.5615 67.8201 47.1065C67.283 48.8969 67.6411 50.2218 68.966 51.475L70.0044 52.4419L69.9328 63.2916L69.8254 74.1414L68.8944 74.3921L67.9276 74.6427L67.7127 68.4838C67.6053 65.1178 67.3904 60.1764 67.2472 57.5266L66.9966 52.6925L66.7459 56.0943C66.6027 57.9563 66.2804 62.2174 66.0297 65.5833L65.5284 71.6707L65.3136 67.3737C64.9913 61.1432 64.9555 50.186 65.242 41.4488L65.4568 33.8218L81.1049 49.4698V74.3563ZM66.9966 87.1397C67.2472 97.9895 67.3188 98.7772 67.5337 94.7668C68.5005 78.3309 68.787 75.4305 69.5031 75.4305C69.9328 75.4305 70.0044 77.9012 70.0044 90.6488V105.867H115.838V88.8584L120.744 83.9528C123.466 81.2314 125.793 79.0113 125.936 79.0113C126.115 79.0113 126.223 90.5056 126.223 104.578C126.223 133.189 126.473 130.539 123.645 130.288L122.284 130.145V96.3065L123.179 95.4829C124.97 93.7999 124.647 90.6488 122.499 89.3598C121.102 88.5004 119.885 88.5004 118.488 89.3598C116.34 90.6488 116.018 93.7999 117.808 95.4829L118.703 96.3065V112.313H64.9913V93.9432C64.9913 83.8095 65.0987 75.4305 65.242 75.3231C65.3494 75.1798 65.7433 75.0724 66.1014 75.0724C66.6385 75.0724 66.7101 76.075 66.9966 87.1397ZM76.8079 85.8864C76.8437 97.0585 77.2734 99.565 77.6315 90.6847C77.7747 87.9274 77.9896 85.5999 78.1686 85.4925C78.3477 85.3851 78.6699 83.7379 78.9206 81.8759C79.6725 75.7528 79.6726 75.7886 80.4245 75.7886C81.0691 75.7886 81.1049 76.1825 81.1049 86.1729V96.5571H103.27L105.705 98.634C109.966 102.286 111.577 101.928 91.3459 101.928H73.5852V75.4663L74.9459 75.3231C75.6621 75.2515 76.3782 75.1799 76.5573 75.144C76.7005 75.1082 76.8079 79.9423 76.8079 85.8864Z" fill="#FF7A00"/>
<path d="M93.7806 107.479L93.1003 108.374L82.3937 108.732C76.4854 108.947 71.6156 109.162 71.5439 109.233C71.4723 109.305 76.4138 109.484 82.5728 109.627C92.6706 109.878 93.7806 109.842 94.0671 109.305C94.5684 108.41 94.8191 108.589 95.5352 110.343C95.9291 111.238 96.323 111.955 96.502 111.955C96.6452 111.955 96.9675 111.489 97.2182 110.916L97.6121 109.878L105.74 109.591C112.293 109.341 113.332 109.233 111.183 109.054C106.743 108.66 97.2898 108.696 97.0391 109.09C96.6452 109.77 96.2514 109.448 95.6784 108.016C95.0339 106.333 94.7474 106.261 93.7806 107.479Z" fill="#6CD3D3"/>
<path d="M87.371 98.5625C86.5832 98.6341 84.399 98.8132 82.537 98.9564L79.1352 99.2071L82.1789 99.4577C86.0103 99.78 95.2487 99.78 99.7247 99.4577C103.055 99.2429 103.091 99.2429 101.157 98.9922C98.6863 98.6699 89.3046 98.3835 87.371 98.5625Z" fill="#6CD3D3"/>
<path d="M23.4544 37.152C23.1321 37.7249 23.1679 38.083 23.6334 38.7633C24.2421 39.6943 24.6002 39.8017 25.567 39.2646C27.1426 38.441 26.6771 36.4 24.8867 36.4C24.2063 36.4 23.705 36.6506 23.4544 37.152ZM25.2447 37.7607C25.2447 38.2262 24.815 38.5485 24.457 38.3336C24.0989 38.1188 24.4212 37.4742 24.9225 37.4742C25.1015 37.4742 25.2447 37.6175 25.2447 37.7607Z" fill="url(#paint13_linear_287_1277)"/>
<path d="M52.7451 45.4951C51.456 46.4619 52.1364 48.5746 53.7119 48.5746C55.2875 48.5746 55.8962 46.7126 54.6787 45.6026C53.891 44.8864 53.5687 44.8506 52.7451 45.4951ZM54.1774 46.8558C53.9626 47.5004 53.1748 47.6078 53.1748 46.9991C53.1748 46.6768 53.4255 46.4261 53.7477 46.4261C54.07 46.4261 54.249 46.6052 54.1774 46.8558Z" fill="url(#paint14_linear_287_1277)"/>
<path d="M159.918 45.9606C159.237 46.7842 159.202 46.999 159.631 47.6436C160.634 49.1117 162.747 48.6462 162.747 46.9274C162.747 46.2112 161.601 44.9938 160.92 44.9938C160.777 44.9938 160.312 45.4235 159.918 45.9606ZM161.601 46.8558C161.493 47.1064 161.314 47.3213 161.135 47.3213C160.956 47.3213 160.777 47.1064 160.705 46.8558C160.598 46.6409 160.813 46.4261 161.135 46.4261C161.457 46.4261 161.672 46.6409 161.601 46.8558Z" fill="url(#paint15_linear_287_1277)"/>
<path d="M70.4339 47.214C70.1832 47.4646 70.0042 48.0018 70.0042 48.4314C70.0042 50.2577 72.4033 50.5799 73.0479 48.8253C73.3343 47.9659 73.2627 47.7153 72.6898 47.2856C71.8662 46.6769 71.0068 46.6411 70.4339 47.214ZM71.7588 48.3956C71.8662 48.8253 71.2933 48.7179 71.15 48.2524C71.0784 48.0018 71.1501 47.8585 71.3649 48.0018C71.5439 48.1092 71.723 48.2882 71.7588 48.3956Z" fill="url(#paint16_linear_287_1277)"/>
<path d="M15.7914 50.0429C15.6481 51.0097 15.6481 52.8001 15.7914 53.9817L16.042 56.0944H20.9477C25.4237 56.0944 25.925 56.0228 26.3547 55.3782C27.608 53.6236 30.6158 54.6263 30.6158 56.8463C30.6158 59.1022 28.1093 60.0691 26.4621 58.4219C25.6027 57.5625 25.4237 57.5267 20.7687 57.5267H15.9346V65.0463H32.3346L33.4088 63.9721C35.1276 62.2533 37.3477 62.6114 38.0997 64.6883C38.5294 65.9415 38.3503 66.6935 37.3119 67.8036C36.2735 68.9852 34.7337 68.8778 33.4088 67.5529L32.3346 66.4787H15.9346V72.8525L17.4743 73.0315C18.2979 73.1031 28.6822 73.2105 40.5704 73.2464L62.1268 73.318V66.4787H48.5914L39.6394 57.3477L30.6516 48.2167H16.042L15.7914 50.0429ZM39.1739 58.3861C44.187 63.3992 48.3765 67.5171 48.484 67.4813C48.5914 67.4813 51.4918 67.4813 54.8936 67.5171L61.0525 67.5529V72.2079H17.0088V67.3739L31.7975 67.5887L33.015 68.6271C34.3757 69.8446 35.4857 69.952 37.2403 69.1284C38.4578 68.5555 39.5678 66.8009 39.5678 65.476C39.5678 64.2944 38.0281 62.3966 36.7032 61.9669C35.1992 61.4656 33.6953 61.8594 32.4062 63.0769L31.4752 63.9721H17.0088V58.6009H21.1267C24.1704 58.6009 25.2805 58.7084 25.4953 59.1022C26.4263 60.6778 29.1835 60.821 30.6516 59.3529C31.7617 58.2429 32.0481 56.3808 31.332 54.9843C30.3652 53.1939 27.1425 52.8001 25.7818 54.304C25.2088 54.9485 24.6717 55.0201 21.0551 55.0201H17.0088V49.2909H30.0787L39.1739 58.3861Z" fill="url(#paint17_linear_287_1277)"/>
<path d="M175.315 57.3475L166.22 66.4785H152.72V73.282H198.913V66.4785H182.727L181.474 67.5528C179.934 68.9135 178.753 68.9135 177.356 67.5528C176.103 66.2637 176.175 65.0104 177.643 63.6855C178.896 62.6113 180.149 62.6829 181.438 63.972L182.513 65.0462H198.913V57.5266H194.15C189.531 57.5266 189.352 57.5624 188.528 58.4218C187.418 59.6034 185.95 59.6034 184.983 58.386C184.052 57.2043 184.052 56.4165 184.876 55.4497C185.878 54.1964 187.168 54.1248 188.421 55.1633C189.495 56.0585 189.71 56.0943 194.222 56.0943H198.913V48.2165H184.375L175.315 57.3475ZM197.838 55.02H193.935C190.927 55.02 189.889 54.8768 189.459 54.4829C187.919 52.9074 185.485 53.0148 184.052 54.7336C181.223 58.0995 185.771 62.3606 189.173 59.496C190.175 58.6724 190.498 58.6008 194.043 58.6008H197.838V63.972H183.479L182.047 62.8261C179.612 60.8925 176.676 61.6087 175.745 64.4375C174.492 68.1257 178.287 71.0261 181.653 68.9851C182.262 68.5912 182.799 68.1257 182.799 67.9109C182.799 67.696 185.485 67.5528 190.319 67.5528H197.838V72.2078H153.795V67.5528H166.829L175.995 58.4218L185.126 49.2908H197.838V55.02Z" fill="url(#paint18_linear_287_1277)"/>
<path d="M104.63 58.5293C103.413 59.8542 104.237 61.2507 106.063 61.0359C106.851 60.9643 107.101 60.7136 107.173 59.9258C107.388 58.0638 105.812 57.2044 104.63 58.5293ZM106.063 59.89C105.741 60.2123 105.06 59.6752 105.311 59.2455C105.454 59.0306 105.669 59.0306 105.92 59.2813C106.134 59.4961 106.206 59.7468 106.063 59.89Z" fill="url(#paint19_linear_287_1277)"/>
<path d="M34.6264 64.545C33.6595 65.2253 33.6237 65.9057 34.5547 66.8367C35.5574 67.8393 37.0255 67.1947 37.0613 65.6908C37.0613 65.0821 36.1661 63.972 35.7006 63.972C35.5574 63.972 35.0561 64.2227 34.6264 64.545ZM35.9871 65.7982C35.9871 65.9773 35.7364 66.1205 35.4499 66.1205C34.9128 66.1205 34.7338 65.6908 35.1277 65.2969C35.4141 65.0105 35.9871 65.3327 35.9871 65.7982Z" fill="url(#paint20_linear_287_1277)"/>
<path d="M178.359 64.5451C177.571 65.3329 177.643 66.3355 178.574 66.98C179.254 67.4455 179.469 67.4814 180.114 67.0517C181.081 66.4071 181.224 65.5119 180.436 64.6525C179.684 63.829 179.111 63.7931 178.359 64.5451ZM179.756 66.1207C179.577 66.4071 179.362 66.4071 179.147 66.1923C178.932 65.9774 178.896 65.6193 179.039 65.4045C179.218 65.118 179.433 65.118 179.648 65.3329C179.863 65.5477 179.899 65.9058 179.756 66.1207Z" fill="url(#paint21_linear_287_1277)"/>
<path d="M16.3999 74.6069C16.0776 74.7143 15.9344 75.7886 15.9344 78.1161V81.482L24.3492 81.5178C29.8637 81.5178 32.7641 81.4104 32.7641 81.1598C32.7641 80.3362 34.2322 79.3694 35.4497 79.3694C37.7772 79.3694 38.9947 81.9475 37.5623 83.9528C36.7746 85.0986 34.4471 85.0628 33.337 83.8454L32.5134 82.9502H15.4689L15.7195 84.275C15.827 85.027 15.9344 86.6384 15.9344 87.8558V90.1117H20.8043C25.5667 90.1117 25.7099 90.0759 26.3903 89.2165C27.6794 87.5694 30.6156 88.5004 30.6156 90.5772C30.6156 92.8689 28.0733 93.7641 26.3187 92.0812C25.4235 91.2218 25.3519 91.186 20.661 91.4366L15.9344 91.6515V94.0148C15.9344 95.3039 15.827 96.9868 15.7195 97.703L15.4689 99.0637H31.2602L48.4479 81.5178H62.1265V74.3563L39.496 74.3921C27.0348 74.3921 16.6147 74.4995 16.3999 74.6069ZM49.8444 75.7886H61.0523V80.4436H47.9824L30.4366 97.9895H17.0086V92.6183H20.9833C24.4209 92.6183 25.0654 92.7257 25.8532 93.3344C26.4619 93.7999 27.3213 94.0506 28.2881 94.0506C29.5772 94.0506 30.0069 93.8715 30.7588 92.9405C31.7615 91.7589 32.0121 89.6462 31.2244 88.6436C29.9711 87.0322 27.2855 86.7816 25.8174 88.1423C24.9222 89.0017 24.5999 89.0375 20.9117 89.0375H17.0086V83.8454L24.4209 83.9528C31.654 84.096 31.8689 84.096 32.8715 84.9554C33.8741 85.8148 34.5545 85.958 36.3449 85.8148C38.1353 85.6715 39.854 83.1292 39.4244 81.303C38.6724 78.3309 35.02 77.2925 32.6567 79.3694L31.4034 80.4436H17.0086V75.3231L27.8226 75.5379C33.7667 75.6812 43.6497 75.7886 49.8444 75.7886Z" fill="url(#paint22_linear_287_1277)"/>
<path d="M152.9 81.3388L159.524 81.4462L166.184 81.5178L174.921 90.2908L183.694 99.0637H198.913V91.2218H194.186C189.638 91.2576 189.388 91.2934 188.636 92.117C187.562 93.2986 185.95 93.2628 184.983 92.0454C184.017 90.8279 184.052 90.0759 185.055 89.1091C186.165 88.0707 187.633 88.1065 188.672 89.2165C189.495 90.0759 189.638 90.1117 194.222 90.1117H198.913V82.9502H182.334L181.51 83.8454C180.042 85.4209 177.464 84.9554 176.748 82.9144C175.709 79.9423 179.433 78.0087 181.474 80.4436L182.405 81.5178H198.913V74.7143H152.685L152.9 81.3388ZM197.838 80.4436H183.229L182.155 79.3694C180.651 77.8654 178.287 77.8296 176.64 79.2978C175.673 80.1929 175.53 80.5868 175.53 82.055C175.53 83.5231 175.673 83.917 176.64 84.8122C178.18 86.1729 180.472 86.2087 182.011 84.9196C183.086 84.0244 183.121 84.0244 190.462 84.0244H197.838V89.0375H194.043C190.498 89.0375 190.176 88.9659 189.173 88.1423C187.562 86.7816 185.306 86.889 184.088 88.3571C182.405 90.3266 183.086 92.9047 185.521 93.9074C186.559 94.3371 186.917 94.3371 187.955 93.9074C188.6 93.6209 189.28 93.227 189.388 93.0122C189.567 92.7615 191.142 92.6183 193.756 92.6183H197.838V97.9895H184.41L166.865 80.4436H153.795V75.7886H197.838V80.4436Z" fill="url(#paint23_linear_287_1277)"/>
<path d="M34.4114 81.0166C34.0891 81.3031 33.8384 81.8044 33.8384 82.0551C33.8384 82.3057 34.0891 82.807 34.4114 83.0935C35.4856 84.1677 37.0611 83.559 37.0611 82.0551C37.0611 80.5511 35.4856 79.9424 34.4114 81.0166ZM35.9153 82.1983C36.0227 82.4848 35.8795 82.628 35.593 82.5206C35.3424 82.449 35.0559 82.1625 34.9843 81.9118C34.8769 81.6254 35.0201 81.4821 35.3066 81.5896C35.5572 81.6612 35.8437 81.9477 35.9153 82.1983Z" fill="url(#paint24_linear_287_1277)"/>
<path d="M178.216 80.8734C177.965 81.124 177.786 81.6254 177.786 82.055C177.786 82.4847 177.965 82.9861 178.216 83.2367C178.466 83.4874 178.968 83.6664 179.397 83.6664C179.827 83.6664 180.328 83.4874 180.579 83.2367C180.83 82.9861 181.009 82.4847 181.009 82.055C181.009 81.6254 180.83 81.124 180.579 80.8734C180.328 80.6227 179.827 80.4437 179.397 80.4437C178.968 80.4437 178.466 80.6227 178.216 80.8734ZM179.827 82.4489C179.505 82.7712 178.824 82.2341 179.075 81.8044C179.218 81.5895 179.433 81.5895 179.684 81.8402C179.899 82.055 179.97 82.3057 179.827 82.4489Z" fill="url(#paint25_linear_287_1277)"/>
<path d="M152.971 82.8429C152.828 82.9503 152.72 84.4901 152.72 86.2447V89.3957H158.199L163.642 89.3599L182.978 109.126L185.091 109.09C186.881 109.09 187.275 108.983 187.884 108.195C188.886 106.906 191.071 106.942 192.073 108.231C193.326 109.842 192.933 111.668 191.142 112.635C189.996 113.208 188.636 112.778 187.633 111.453C186.845 110.415 186.559 110.308 184.589 110.236L182.441 110.164L172.916 100.496L163.355 90.8281H152.72V115.177H128.693L128.908 124.308H158.629L158.593 113.387C158.557 107.371 158.414 101.714 158.271 100.818C158.056 99.3145 158.092 99.0997 158.987 98.3835C160.204 97.4525 162.03 97.4167 163.14 98.3119C163.749 98.7774 163.964 99.3503 164 100.496L164.036 102L181.188 116.287C190.641 124.129 198.483 130.575 198.662 130.575C198.805 130.575 198.877 123.843 198.841 115.607L198.733 100.675L183.372 100.532L165.432 82.5922H159.309C155.943 82.5922 153.078 82.6997 152.971 82.8429ZM182.978 101.57H197.838V115.034C197.838 125.669 197.731 128.426 197.409 128.211C196.37 127.567 168.87 104.542 167.151 102.859C166.112 101.893 165.253 100.747 165.253 100.389C165.253 99.4219 164.286 97.739 163.391 97.1302C162.961 96.808 161.959 96.5573 161.207 96.5573C158.271 96.5573 156.695 98.3835 157.196 101.284C157.34 102.143 157.519 107.371 157.626 112.922L157.769 123.055H129.409L129.624 116.431L141.727 116.323L153.795 116.252V91.9023H162.567L182.262 111.597H184.267C186.022 111.597 186.38 111.704 186.881 112.492C187.669 113.709 189.925 114.354 191.393 113.745C194.83 112.313 194.723 107.228 191.214 106.261C189.71 105.867 188.743 106.082 187.096 107.192C184.518 108.911 184.697 109.018 173.847 98.1687L164 88.3215H153.795V84.0246H165.432L182.978 101.57Z" fill="url(#paint26_linear_287_1277)"/>
<path d="M135.712 119.009C131.021 119.224 131.916 119.725 137.502 119.976C143.446 120.298 154.189 119.904 153.329 119.438C152.72 119.08 140.331 118.794 135.712 119.009Z" fill="#6CD3D3"/>
<path d="M31.5111 100.496L26.1399 100.639C23.2037 100.747 19.6945 100.818 18.3696 100.818L15.9347 100.854V115.715C15.9347 123.879 16.0421 130.575 16.2211 130.575C16.3644 130.575 24.1347 124.201 33.4805 116.431L50.4893 102.287L50.7041 100.604C50.9548 98.5984 51.9574 97.6316 53.891 97.6316C55.8604 97.6316 56.9347 98.9923 56.5766 101.033C56.4334 101.821 56.2901 107.371 56.2543 113.387L56.2185 124.308L69.2168 124.38L82.1792 124.487V115.177L72.2604 115.106L62.3059 114.998L62.1984 102.895L62.1268 90.8281H51.5635L41.9312 100.46L32.2989 110.129L30.043 110.379C28.181 110.558 27.6797 110.773 27.2142 111.489C26.5338 112.492 25.0657 113.136 24.0989 112.814C22.9888 112.456 22.022 111.167 22.022 109.985C22.022 107.515 25.2805 106.333 27.0351 108.195C27.7513 108.947 28.2168 109.09 29.9356 109.09H31.9766L51.3128 89.3957H62.1268V82.9503L48.6989 83.0219L31.5111 100.496ZM61.0526 88.3215H50.8473L41.0002 98.1687C30.1146 109.054 30.3294 108.911 27.6797 107.085C25.3521 105.438 22.1294 106.046 21.3059 108.231C20.4107 110.522 21.1268 112.563 23.1679 113.602C24.636 114.354 26.319 113.996 27.7513 112.671C28.7181 111.776 29.1836 111.597 30.7591 111.597H32.5853L52.2797 91.9023H61.0526V116.252H81.105V123.055H57.0779L57.2211 112.922C57.3286 107.371 57.5076 102.143 57.6508 101.284C58.1522 98.3835 56.5766 96.5573 53.5687 96.5573C51.5635 96.5573 50.0238 97.9538 49.6657 100.138C49.415 101.714 49.3434 101.785 33.4805 115.07C24.7076 122.375 17.4386 128.391 17.2954 128.391C17.1163 128.426 17.0089 122.482 17.0089 115.213V102L24.5286 101.857L32.084 101.749L40.6779 92.8691L49.3076 84.0246H61.0526V88.3215Z" fill="url(#paint27_linear_287_1277)"/>
<path d="M63.8096 119.08C62.0908 119.259 60.5869 119.438 60.5153 119.546C60.4078 119.653 62.4847 119.832 65.1703 119.976C70.6131 120.262 80.2454 119.904 79.0637 119.438C77.9179 119.009 67.3904 118.758 63.8096 119.08Z" fill="#6CD3D3"/>
<path d="M92.4203 85.6716C92.3128 86.6026 92.2054 88.7868 92.2054 90.5056V93.6925H97.2185C99.9757 93.6925 102.232 93.6567 102.232 93.5851C102.232 93.5493 100.083 91.365 97.4334 88.7152L92.6709 83.9528L92.4203 85.6716ZM96.8604 89.5746L99.9041 92.6183H93.2797V90.6847C93.2797 89.0733 93.6019 86.5309 93.781 86.5309C93.8168 86.5309 95.1775 87.8916 96.8604 89.5746Z" fill="#FF7A00"/>
<path d="M119.455 91.7589C119.061 92.2602 118.846 92.9047 118.954 93.1912C119.276 94.0506 120.386 94.4803 121.174 94.0864C122.248 93.4776 122.391 92.5824 121.532 91.6514C120.529 90.613 120.35 90.613 119.455 91.7589ZM120.851 92.5466C120.851 93.0121 120.422 93.3344 120.064 93.1196C119.706 92.9047 120.028 92.2602 120.529 92.2602C120.708 92.2602 120.851 92.4034 120.851 92.5466Z" fill="url(#paint28_linear_287_1277)"/>
<path d="M52.6373 99.2786C51.7779 100.174 52.1002 101.678 53.2461 102.072C54.4635 102.501 55.3229 101.857 55.3229 100.46C55.3229 98.9206 53.7116 98.2044 52.6373 99.2786ZM54.0696 100.854C53.8906 101.141 53.6758 101.141 53.4609 100.926C53.2461 100.711 53.2103 100.353 53.3535 100.138C53.5325 99.8516 53.7474 99.8516 53.9622 100.066C54.1771 100.281 54.2129 100.639 54.0696 100.854Z" fill="url(#paint29_linear_287_1277)"/>
<path d="M159.667 99.601C159.13 100.425 159.13 100.568 159.667 101.391C160.67 102.895 162.747 102.394 162.747 100.675C162.747 99.78 161.708 98.7058 160.849 98.7058C160.527 98.7058 159.989 99.0997 159.667 99.601ZM161.493 100.496C161.493 100.747 161.279 101.033 161.064 101.105C160.777 101.212 160.598 100.962 160.598 100.496C160.598 100.031 160.777 99.78 161.064 99.8517C161.279 99.9591 161.493 100.246 161.493 100.496Z" fill="url(#paint30_linear_287_1277)"/>
<path d="M136.965 102.644C136.571 103.038 136.249 103.504 136.249 103.719C136.249 104.256 137.61 105.509 138.183 105.509C138.684 105.509 139.83 104.22 139.83 103.647C139.83 103.253 138.469 101.928 138.039 101.928C137.86 101.928 137.359 102.251 136.965 102.644ZM138.398 104.22C137.932 104.686 137.144 103.969 137.502 103.361C137.681 103.074 137.896 103.074 138.254 103.396C138.612 103.683 138.684 103.934 138.398 104.22Z" fill="url(#paint31_linear_287_1277)"/>
<path d="M46.5142 107.407C43.9361 109.591 36.5597 115.822 30.15 121.229C23.7046 126.636 18.4409 131.112 18.4409 131.183C18.4409 131.219 22.3797 131.291 27.2138 131.291H35.9867V128.677L35.9509 126.099L39.8182 122.482L43.6496 118.865L43.5422 117.218C43.5064 115.822 43.6496 115.392 44.3658 114.64C45.4758 113.53 47.0156 113.494 48.3046 114.497C49.6295 115.535 49.6295 118.042 48.3404 119.044C47.4452 119.761 47.4452 119.796 47.4452 125.526V131.291H82.2147L81.9998 125.741L68.5003 125.633L54.9649 125.562V123.664C54.9291 122.661 54.9291 117.72 54.9291 112.742C54.9649 104.435 54.8933 103.719 54.3204 103.719C53.9981 103.719 53.1387 103.647 52.4583 103.54C51.2767 103.396 50.8828 103.647 46.5142 107.407ZM52.9597 104.793L53.8907 105.151V126.528L55.2514 126.779C55.9675 126.886 62.0907 126.994 68.8583 126.994H81.1046V130.217H48.5195V125.275C48.5195 120.441 48.5553 120.298 49.4147 119.474C50.6321 118.328 50.8828 116.645 50.1308 115.034C48.8776 112.384 45.3684 111.919 43.4348 114.103C42.647 114.962 42.4321 115.535 42.4321 116.896V118.579L38.6723 121.981L34.9125 125.347V130.217H28.0374C22.0933 130.217 21.2339 130.145 21.6636 129.715C22.2723 129.142 51.8854 104.435 51.9928 104.435C52.0287 104.435 52.4583 104.578 52.9597 104.793Z" fill="url(#paint32_linear_287_1277)"/>
<path d="M161.243 103.611L160.24 103.755V125.562L146.203 125.597C138.469 125.597 131.379 125.597 130.448 125.562L128.729 125.526V127.065C128.729 127.925 128.622 129.214 128.514 129.966L128.264 131.291L147.922 131.219L167.581 131.112L167.724 120.011L166.614 119.08C165.074 117.791 165.003 115.858 166.471 114.604C168.691 112.671 171.734 114.533 171.197 117.505C170.982 118.615 171.126 118.83 175.1 122.518L179.218 126.349V131.291H187.848C193.04 131.291 196.37 131.148 196.227 130.968C196.048 130.646 191.106 126.457 172.164 110.63C167.366 106.619 163.176 103.396 162.854 103.396C162.496 103.432 161.78 103.54 161.243 103.611ZM177.607 116.645C185.699 123.341 192.61 129.142 193.004 129.536C193.685 130.217 193.613 130.217 186.989 130.217H180.292V125.669L172.486 118.651L172.307 116.681C172.057 114.246 171.018 113.065 168.941 112.778C164.931 112.241 162.675 116.932 165.611 119.725L166.686 120.727V130.217H129.445V126.994L143.876 126.958C151.789 126.958 158.915 126.851 159.703 126.707L161.135 126.457L161.243 115.714C161.314 104.972 161.386 104.471 162.568 104.435C162.782 104.435 169.55 109.913 177.607 116.645Z" fill="url(#paint33_linear_287_1277)"/>
<path d="M23.633 109.197C22.9526 110.272 23.2391 111.167 24.4565 111.489C25.1369 111.632 25.5308 111.525 26.0321 110.88C26.605 110.164 26.6408 109.985 26.2111 109.305C25.4592 108.195 24.3133 108.159 23.633 109.197ZM25.1369 110.379C24.8146 110.701 24.1343 110.164 24.3849 109.735C24.5282 109.52 24.743 109.52 24.9937 109.77C25.2085 109.985 25.2801 110.236 25.1369 110.379Z" fill="url(#paint34_linear_287_1277)"/>
<path d="M44.9747 115.965C44.2586 117.827 47.0158 119.367 47.8394 117.576C48.4123 116.287 47.732 115.177 46.3354 115.177C45.5477 115.177 45.1896 115.392 44.9747 115.965ZM46.7293 116.789C46.7293 117.075 46.5861 117.326 46.3713 117.326C46.1922 117.326 46.0132 117.075 46.0132 116.789C46.0132 116.502 46.1922 116.252 46.3713 116.252C46.5861 116.252 46.7293 116.502 46.7293 116.789Z" fill="url(#paint35_linear_287_1277)"/>
<path d="M83.6115 131.291H89.6989V115.177H83.6115V131.291ZM88.6246 130.217H84.6858V116.251H88.6246V130.217Z" fill="url(#paint36_linear_287_1277)"/>
<path d="M91.1312 131.291H97.2185L97.1469 123.306L97.0395 115.356L91.1312 115.141V131.291ZM96.1443 130.217H92.2054V116.251H96.1443V130.217Z" fill="url(#paint37_linear_287_1277)"/>
<path d="M98.9015 115.428C98.7583 115.535 98.6508 119.188 98.6508 123.485V131.291H104.738V115.177H101.945C100.405 115.177 99.0089 115.285 98.9015 115.428ZM103.664 130.217H99.7251V116.251H103.664V130.217Z" fill="url(#paint38_linear_287_1277)"/>
<path d="M106.421 115.428C106.278 115.535 106.17 119.188 106.17 123.485V131.291H112.258V115.177H109.465C107.925 115.177 106.529 115.285 106.421 115.428ZM111.112 123.27L111.005 130.324H107.424L107.316 123.27L107.245 116.251H111.184L111.112 123.27Z" fill="url(#paint39_linear_287_1277)"/>
<path d="M113.69 131.291H119.777L119.706 123.306L119.598 115.356L113.69 115.141V131.291ZM118.703 130.217H114.764V116.251H118.703V130.217Z" fill="url(#paint40_linear_287_1277)"/>
<path d="M167.115 115.607C166.864 115.858 166.685 116.359 166.685 116.789C166.685 117.218 166.864 117.72 167.115 117.97C168.118 118.973 169.908 118.221 169.908 116.789C169.908 116.359 169.729 115.858 169.478 115.607C169.228 115.356 168.726 115.177 168.297 115.177C167.867 115.177 167.366 115.356 167.115 115.607ZM168.44 116.789C168.547 117.218 167.975 117.111 167.831 116.645C167.76 116.395 167.831 116.252 168.046 116.395C168.225 116.502 168.404 116.681 168.44 116.789Z" fill="url(#paint41_linear_287_1277)"/>
<path d="M44.545 120.083C44.0795 120.405 42.1817 122.017 40.3913 123.7L37.0611 126.707V131.291H46.0131V125.597C46.0131 122.446 45.8699 119.796 45.7266 119.689C45.5476 119.582 45.0105 119.761 44.545 120.083ZM44.9389 125.92V130.217H38.0996L38.2786 128.569C38.3502 127.674 38.6367 126.707 38.8873 126.457C41.4655 124.058 44.3659 121.623 44.6166 121.623C44.7956 121.623 44.9389 123.556 44.9389 125.92Z" fill="url(#paint42_linear_287_1277)"/>
<path d="M169.443 119.725C169.3 119.832 169.192 122.518 169.192 125.633V131.291H177.786V126.707L173.883 123.091C171.735 121.121 169.908 119.474 169.837 119.474C169.729 119.474 169.55 119.582 169.443 119.725ZM174.134 124.845C176.569 127.03 176.712 127.244 176.712 128.641V130.145L174.313 130.288C169.98 130.503 170.266 130.825 170.266 125.848C170.266 120.906 169.837 121.014 174.134 124.845Z" fill="url(#paint43_linear_287_1277)"/>
<path d="M4.18931 153.742C4.29673 160.045 4.40416 161.37 4.94128 162.336C6.01551 164.306 7.73429 166.025 9.63211 167.027L11.4583 167.994L203.03 168.173L205.25 167.099C207.829 165.81 209.368 164.127 210.371 161.441C210.98 159.794 211.087 158.648 211.087 152.955V146.33H4.08189L4.18931 153.742ZM209.655 153.42C209.655 160.367 209.297 161.978 207.256 164.019C206.54 164.7 205.286 165.631 204.463 166.025C202.959 166.741 202.816 166.741 107.173 166.669L11.3867 166.562L9.66791 165.487C6.01551 163.232 5.22774 160.868 5.19193 152.167V147.763L28.9325 147.655C41.9666 147.619 87.9797 147.548 131.164 147.476L209.655 147.404V153.42Z" fill="#7B2CBF"/>
<path d="M104.451 151.236C102.446 152.203 101.372 153.957 101.229 156.5C101.085 159.185 101.802 160.725 103.986 162.265C105.203 163.124 105.812 163.303 107.352 163.303C113.976 163.196 116.304 155.175 110.825 151.415C109.393 150.448 106.242 150.341 104.451 151.236ZM109.106 152.024C109.572 152.203 110.467 152.883 111.112 153.527C115.015 157.502 110.431 163.84 105.382 161.405C101.408 159.507 101.551 153.957 105.633 152.203C106.922 151.63 107.961 151.594 109.106 152.024Z" fill="#6CD3D3"/>
<path d="M22.5946 156.356C17.9037 156.535 13.7858 156.75 13.4635 156.822C10.2766 157.538 64.5614 157.932 76.9867 157.252C83.1815 156.929 83.3247 156.893 80.3884 156.679C75.1605 156.285 31.5823 156.034 22.5946 156.356Z" fill="#6CD3D3"/>
<path d="M143.053 156.356C139.221 156.499 135.103 156.679 133.922 156.75C131.845 156.858 131.881 156.858 134.817 157.072C144.091 157.681 184.876 157.824 195.869 157.251C202.064 156.929 202.207 156.893 199.271 156.679C194.437 156.32 150.751 156.034 143.053 156.356Z" fill="#5FE1C7"/>
<path d="M85.187 171.396C84.5782 171.646 84.3634 172.112 84.1485 173.616C83.2175 181.099 82.1075 187.939 81.6062 189.407C81.2839 190.338 80.1739 192.307 79.1354 193.775C77.6673 195.816 77.345 196.461 77.7747 196.604C78.5267 196.891 134.745 196.819 136.356 196.533L137.681 196.282L136.07 194.134C133.707 190.982 133.098 188.941 131.845 179.846C131.021 174.045 130.52 171.61 130.162 171.396C129.481 170.966 86.2254 170.966 85.187 171.396ZM129.445 172.649C129.445 173.58 131.379 186.399 131.773 188.154C132.274 190.266 133.42 192.844 134.673 194.563L135.246 195.387H107.638C92.456 195.387 80.0306 195.315 80.0306 195.244C80.0306 195.136 80.5319 194.313 81.1407 193.417C82.752 191.018 83.4324 188.476 84.5066 180.813C85.0437 177.125 85.545 173.723 85.6166 173.258L85.7599 172.47H107.603C119.634 172.47 129.445 172.541 129.445 172.649Z" fill="#FF8D28"/>
<path d="M93.2794 180.67C88.123 181.1 91.489 181.493 101.981 181.673C114.155 181.923 124.719 181.565 124.11 180.956C123.644 180.491 98.006 180.276 93.2794 180.67Z" fill="#FF7800"/>
<path d="M98.6505 187.867C96.3946 188.01 93.5658 188.154 92.3841 188.189C90.5221 188.225 90.3431 188.297 90.9518 188.691C91.9544 189.299 122.857 189.299 123.859 188.727C124.396 188.404 123.501 188.261 119.383 188.082C109.5 187.688 102.733 187.616 98.6505 187.867Z" fill="#FF7800"/>
<path d="M64.4539 200.042C62.9142 200.651 62.019 202.119 61.8399 204.16L61.6967 206.129H153.436V204.59C153.436 203.73 153.15 202.584 152.72 201.94C151.252 199.541 154.296 199.684 107.531 199.72C84.2199 199.72 64.8478 199.863 64.4539 200.042ZM150.643 201.51C151.216 201.832 152.362 203.802 152.362 204.518C152.362 204.625 132.238 204.697 107.602 204.697C76.5928 204.697 62.8426 204.59 62.8426 204.339C62.8426 203.623 63.9168 201.868 64.5255 201.51C65.4565 200.973 149.641 200.973 150.643 201.51Z" fill="#FF8D28"/>
<path fill-rule="evenodd" clip-rule="evenodd" d="M129.445 172.649C129.445 173.58 131.379 186.399 131.773 188.154C132.274 190.266 133.42 192.844 134.673 194.563L135.246 195.387H107.638C92.456 195.387 80.0306 195.315 80.0306 195.244C80.0306 195.136 80.5319 194.313 81.1407 193.417C82.752 191.018 83.4324 188.476 84.5066 180.813C85.0437 177.125 85.545 173.723 85.6166 173.258L85.7599 172.47H107.603C119.634 172.47 129.445 172.541 129.445 172.649ZM101.981 181.673C91.489 181.493 88.123 181.1 93.2794 180.67C98.006 180.276 123.644 180.491 124.11 180.956C124.719 181.565 114.155 181.923 101.981 181.673ZM92.3841 188.189C93.5658 188.154 96.3946 188.01 98.6505 187.867C102.733 187.616 109.5 187.688 119.383 188.082C123.501 188.261 124.396 188.404 123.859 188.727C122.857 189.299 91.9544 189.299 90.9518 188.691C90.3431 188.297 90.5221 188.225 92.3841 188.189Z" fill="#FF8D28"/>
<path d="M150.643 201.51C151.216 201.832 152.362 203.802 152.362 204.518C152.362 204.625 132.238 204.697 107.602 204.697C76.5928 204.697 62.8426 204.59 62.8426 204.339C62.8426 203.623 63.9168 201.868 64.5255 201.51C65.4565 200.973 149.641 200.973 150.643 201.51Z" fill="#FF8D28"/>
<path fill-rule="evenodd" clip-rule="evenodd" d="M206.325 2.34674C209.225 3.74325 211.589 6.14237 212.914 9.007L213.952 11.3345V160.617L213.2 162.623C212.233 165.273 209.19 168.531 206.504 169.856L204.463 170.859L169.3 171.038C149.963 171.145 134.065 171.324 133.921 171.467C133.635 171.754 134.53 178.844 135.569 184.824C136.392 189.371 137.431 191.412 140.403 194.348C142.515 196.425 143.625 196.783 147.815 196.819C151.038 196.819 152.434 197.321 154.117 199.004C156.015 200.901 156.659 202.62 156.659 206.022V208.994H58.4742L58.6175 205.449C58.7249 202.226 58.8323 201.797 59.7991 200.4C61.6969 197.643 63.0218 197.07 67.8559 196.783C72.5467 196.533 73.048 196.318 75.483 193.632C77.524 191.376 78.5625 189.479 79.1354 187.044C79.8515 183.857 81.5345 171.682 81.248 171.431C81.1406 171.324 65.3135 171.181 46.0847 171.109L11.1004 171.002L8.91616 169.999C5.80087 168.531 3.97467 166.741 2.39913 163.59L1.07424 160.868L0.895197 11.7642L1.64716 9.75897C2.50655 7.39565 5.26376 4.20875 7.59127 2.84805C8.48646 2.34674 10.0978 1.80962 11.2079 1.66639C12.3179 1.52316 56.1825 1.37993 108.677 1.34412L204.105 1.30831L206.325 2.34674ZM4.47574 10.8332C5.83644 7.25237 8.3788 4.99647 11.6373 4.49516C12.5325 4.38774 56.0749 4.24451 108.462 4.2087L203.639 4.17289L205.752 5.28293C207.864 6.42879 208.939 7.53883 210.228 9.90215C210.872 11.1196 210.908 13.1249 211.016 77.0777L211.087 143.036L205.286 143.286C198.447 143.573 4.61897 143.394 4.33251 143.072C4.22508 142.964 4.04604 113.638 3.90281 77.9013L3.68797 12.9458L4.47574 10.8332ZM4.94128 162.336C4.40416 161.37 4.29673 160.045 4.18931 153.742L4.08189 146.33H211.087V152.955C211.087 158.648 210.98 159.794 210.371 161.441C209.368 164.127 207.829 165.81 205.25 167.099L203.03 168.173L11.4583 167.994L9.63211 167.027C7.73429 166.025 6.01551 164.306 4.94128 162.336ZM84.1485 173.616C84.3634 172.112 84.5782 171.646 85.187 171.396C86.2254 170.966 129.481 170.966 130.162 171.396C130.52 171.61 131.021 174.045 131.845 179.846C133.098 188.941 133.707 190.982 136.07 194.134L137.681 196.282L136.356 196.533C134.745 196.819 78.5267 196.891 77.7747 196.604C77.345 196.461 77.6673 195.816 79.1354 193.775C80.1739 192.307 81.2839 190.338 81.6062 189.407C82.1075 187.939 83.2175 181.099 84.1485 173.616ZM61.8399 204.16C62.019 202.119 62.9142 200.651 64.4539 200.042C64.8478 199.863 84.2199 199.72 107.531 199.72C154.296 199.684 151.252 199.541 152.72 201.94C153.15 202.584 153.436 203.73 153.436 204.59V206.129H61.6967L61.8399 204.16Z" fill="black"/>
<defs>
<linearGradient id="paint0_linear_287_1277" x1="0" y1="105.213" x2="215.361" y2="105.213" gradientUnits="userSpaceOnUse">
<stop stop-color="#FF7A00"/>
<stop offset="0.5" stop-color="#5FE1C7"/>
<stop offset="1" stop-color="#7B2CBF"/>
</linearGradient>
<linearGradient id="paint1_linear_287_1277" x1="0" y1="105.213" x2="215.361" y2="105.213" gradientUnits="userSpaceOnUse">
<stop stop-color="#FF7A00"/>
<stop offset="0.5" stop-color="#5FE1C7"/>
<stop offset="1" stop-color="#7B2CBF"/>
</linearGradient>
<linearGradient id="paint2_linear_287_1277" x1="0" y1="105.213" x2="215.361" y2="105.213" gradientUnits="userSpaceOnUse">
<stop stop-color="#FF7A00"/>
<stop offset="0.5" stop-color="#5FE1C7"/>
<stop offset="1" stop-color="#7B2CBF"/>
</linearGradient>
<linearGradient id="paint3_linear_287_1277" x1="0" y1="105.213" x2="215.361" y2="105.213" gradientUnits="userSpaceOnUse">
<stop stop-color="#FF7A00"/>
<stop offset="0.5" stop-color="#5FE1C7"/>
<stop offset="1" stop-color="#7B2CBF"/>
</linearGradient>
<linearGradient id="paint4_linear_287_1277" x1="0" y1="105.213" x2="215.361" y2="105.213" gradientUnits="userSpaceOnUse">
<stop stop-color="#FF7A00"/>
<stop offset="0.5" stop-color="#5FE1C7"/>
<stop offset="1" stop-color="#7B2CBF"/>
</linearGradient>
<linearGradient id="paint5_linear_287_1277" x1="0" y1="105.213" x2="215.361" y2="105.213" gradientUnits="userSpaceOnUse">
<stop stop-color="#FF7A00"/>
<stop offset="0.5" stop-color="#5FE1C7"/>
<stop offset="1" stop-color="#7B2CBF"/>
</linearGradient>
<linearGradient id="paint6_linear_287_1277" x1="0" y1="105.213" x2="215.361" y2="105.213" gradientUnits="userSpaceOnUse">
<stop stop-color="#FF7A00"/>
<stop offset="0.5" stop-color="#5FE1C7"/>
<stop offset="1" stop-color="#7B2CBF"/>
</linearGradient>
<linearGradient id="paint7_linear_287_1277" x1="0" y1="105.213" x2="215.361" y2="105.213" gradientUnits="userSpaceOnUse">
<stop stop-color="#FF7A00"/>
<stop offset="0.5" stop-color="#5FE1C7"/>
<stop offset="1" stop-color="#7B2CBF"/>
</linearGradient>
<linearGradient id="paint8_linear_287_1277" x1="0" y1="105.213" x2="215.361" y2="105.213" gradientUnits="userSpaceOnUse">
<stop stop-color="#FF7A00"/>
<stop offset="0.5" stop-color="#5FE1C7"/>
<stop offset="1" stop-color="#7B2CBF"/>
</linearGradient>
<linearGradient id="paint9_linear_287_1277" x1="0" y1="105.213" x2="215.361" y2="105.213" gradientUnits="userSpaceOnUse">
<stop stop-color="#FF7A00"/>
<stop offset="0.5" stop-color="#5FE1C7"/>
<stop offset="1" stop-color="#7B2CBF"/>
</linearGradient>
<linearGradient id="paint10_linear_287_1277" x1="0" y1="105.213" x2="215.361" y2="105.213" gradientUnits="userSpaceOnUse">
<stop stop-color="#FF7A00"/>
<stop offset="0.5" stop-color="#5FE1C7"/>
<stop offset="1" stop-color="#7B2CBF"/>
</linearGradient>
<linearGradient id="paint11_linear_287_1277" x1="0" y1="105.213" x2="215.361" y2="105.213" gradientUnits="userSpaceOnUse">
<stop stop-color="#FF7A00"/>
<stop offset="0.5" stop-color="#5FE1C7"/>
<stop offset="1" stop-color="#7B2CBF"/>
</linearGradient>
<linearGradient id="paint12_linear_287_1277" x1="0" y1="105.213" x2="215.361" y2="105.213" gradientUnits="userSpaceOnUse">
<stop stop-color="#FF7A00"/>
<stop offset="0.5" stop-color="#5FE1C7"/>
<stop offset="1" stop-color="#7B2CBF"/>
</linearGradient>
<linearGradient id="paint13_linear_287_1277" x1="0" y1="105.213" x2="215.361" y2="105.213" gradientUnits="userSpaceOnUse">
<stop stop-color="#FF7A00"/>
<stop offset="0.5" stop-color="#5FE1C7"/>
<stop offset="1" stop-color="#7B2CBF"/>
</linearGradient>
<linearGradient id="paint14_linear_287_1277" x1="0" y1="105.213" x2="215.361" y2="105.213" gradientUnits="userSpaceOnUse">
<stop stop-color="#FF7A00"/>
<stop offset="0.5" stop-color="#5FE1C7"/>
<stop offset="1" stop-color="#7B2CBF"/>
</linearGradient>
<linearGradient id="paint15_linear_287_1277" x1="0" y1="105.213" x2="215.361" y2="105.213" gradientUnits="userSpaceOnUse">
<stop stop-color="#FF7A00"/>
<stop offset="0.5" stop-color="#5FE1C7"/>
<stop offset="1" stop-color="#7B2CBF"/>
</linearGradient>
<linearGradient id="paint16_linear_287_1277" x1="0" y1="105.213" x2="215.361" y2="105.213" gradientUnits="userSpaceOnUse">
<stop stop-color="#FF7A00"/>
<stop offset="0.5" stop-color="#5FE1C7"/>
<stop offset="1" stop-color="#7B2CBF"/>
</linearGradient>
<linearGradient id="paint17_linear_287_1277" x1="0" y1="105.213" x2="215.361" y2="105.213" gradientUnits="userSpaceOnUse">
<stop stop-color="#FF7A00"/>
<stop offset="0.5" stop-color="#5FE1C7"/>
<stop offset="1" stop-color="#7B2CBF"/>
</linearGradient>
<linearGradient id="paint18_linear_287_1277" x1="0" y1="105.213" x2="215.361" y2="105.213" gradientUnits="userSpaceOnUse">
<stop stop-color="#FF7A00"/>
<stop offset="0.5" stop-color="#5FE1C7"/>
<stop offset="1" stop-color="#7B2CBF"/>
</linearGradient>
<linearGradient id="paint19_linear_287_1277" x1="0" y1="105.213" x2="215.361" y2="105.213" gradientUnits="userSpaceOnUse">
<stop stop-color="#FF7A00"/>
<stop offset="0.5" stop-color="#5FE1C7"/>
<stop offset="1" stop-color="#7B2CBF"/>
</linearGradient>
<linearGradient id="paint20_linear_287_1277" x1="0" y1="105.213" x2="215.361" y2="105.213" gradientUnits="userSpaceOnUse">
<stop stop-color="#FF7A00"/>
<stop offset="0.5" stop-color="#5FE1C7"/>
<stop offset="1" stop-color="#7B2CBF"/>
</linearGradient>
<linearGradient id="paint21_linear_287_1277" x1="0" y1="105.213" x2="215.361" y2="105.213" gradientUnits="userSpaceOnUse">
<stop stop-color="#FF7A00"/>
<stop offset="0.5" stop-color="#5FE1C7"/>
<stop offset="1" stop-color="#7B2CBF"/>
</linearGradient>
<linearGradient id="paint22_linear_287_1277" x1="0" y1="105.213" x2="215.361" y2="105.213" gradientUnits="userSpaceOnUse">
<stop stop-color="#FF7A00"/>
<stop offset="0.5" stop-color="#5FE1C7"/>
<stop offset="1" stop-color="#7B2CBF"/>
</linearGradient>
<linearGradient id="paint23_linear_287_1277" x1="0" y1="105.213" x2="215.361" y2="105.213" gradientUnits="userSpaceOnUse">
<stop stop-color="#FF7A00"/>
<stop offset="0.5" stop-color="#5FE1C7"/>
<stop offset="1" stop-color="#7B2CBF"/>
</linearGradient>
<linearGradient id="paint24_linear_287_1277" x1="0" y1="105.213" x2="215.361" y2="105.213" gradientUnits="userSpaceOnUse">
<stop stop-color="#FF7A00"/>
<stop offset="0.5" stop-color="#5FE1C7"/>
<stop offset="1" stop-color="#7B2CBF"/>
</linearGradient>
<linearGradient id="paint25_linear_287_1277" x1="0" y1="105.213" x2="215.361" y2="105.213" gradientUnits="userSpaceOnUse">
<stop stop-color="#FF7A00"/>
<stop offset="0.5" stop-color="#5FE1C7"/>
<stop offset="1" stop-color="#7B2CBF"/>
</linearGradient>
<linearGradient id="paint26_linear_287_1277" x1="0" y1="105.213" x2="215.361" y2="105.213" gradientUnits="userSpaceOnUse">
<stop stop-color="#FF7A00"/>
<stop offset="0.5" stop-color="#5FE1C7"/>
<stop offset="1" stop-color="#7B2CBF"/>
</linearGradient>
<linearGradient id="paint27_linear_287_1277" x1="0" y1="105.213" x2="215.361" y2="105.213" gradientUnits="userSpaceOnUse">
<stop stop-color="#FF7A00"/>
<stop offset="0.5" stop-color="#5FE1C7"/>
<stop offset="1" stop-color="#7B2CBF"/>
</linearGradient>
<linearGradient id="paint28_linear_287_1277" x1="0" y1="105.213" x2="215.361" y2="105.213" gradientUnits="userSpaceOnUse">
<stop stop-color="#FF7A00"/>
<stop offset="0.5" stop-color="#5FE1C7"/>
<stop offset="1" stop-color="#7B2CBF"/>
</linearGradient>
<linearGradient id="paint29_linear_287_1277" x1="0" y1="105.213" x2="215.361" y2="105.213" gradientUnits="userSpaceOnUse">
<stop stop-color="#FF7A00"/>
<stop offset="0.5" stop-color="#5FE1C7"/>
<stop offset="1" stop-color="#7B2CBF"/>
</linearGradient>
<linearGradient id="paint30_linear_287_1277" x1="0" y1="105.213" x2="215.361" y2="105.213" gradientUnits="userSpaceOnUse">
<stop stop-color="#FF7A00"/>
<stop offset="0.5" stop-color="#5FE1C7"/>
<stop offset="1" stop-color="#7B2CBF"/>
</linearGradient>
<linearGradient id="paint31_linear_287_1277" x1="0" y1="105.213" x2="215.361" y2="105.213" gradientUnits="userSpaceOnUse">
<stop stop-color="#FF7A00"/>
<stop offset="0.5" stop-color="#5FE1C7"/>
<stop offset="1" stop-color="#7B2CBF"/>
</linearGradient>
<linearGradient id="paint32_linear_287_1277" x1="0" y1="105.213" x2="215.361" y2="105.213" gradientUnits="userSpaceOnUse">
<stop stop-color="#FF7A00"/>
<stop offset="0.5" stop-color="#5FE1C7"/>
<stop offset="1" stop-color="#7B2CBF"/>
</linearGradient>
<linearGradient id="paint33_linear_287_1277" x1="0" y1="105.213" x2="215.361" y2="105.213" gradientUnits="userSpaceOnUse">
<stop stop-color="#FF7A00"/>
<stop offset="0.5" stop-color="#5FE1C7"/>
<stop offset="1" stop-color="#7B2CBF"/>
</linearGradient>
<linearGradient id="paint34_linear_287_1277" x1="0" y1="105.213" x2="215.361" y2="105.213" gradientUnits="userSpaceOnUse">
<stop stop-color="#FF7A00"/>
<stop offset="0.5" stop-color="#5FE1C7"/>
<stop offset="1" stop-color="#7B2CBF"/>
</linearGradient>
<linearGradient id="paint35_linear_287_1277" x1="0" y1="105.213" x2="215.361" y2="105.213" gradientUnits="userSpaceOnUse">
<stop stop-color="#FF7A00"/>
<stop offset="0.5" stop-color="#5FE1C7"/>
<stop offset="1" stop-color="#7B2CBF"/>
</linearGradient>
<linearGradient id="paint36_linear_287_1277" x1="0" y1="105.213" x2="215.361" y2="105.213" gradientUnits="userSpaceOnUse">
<stop stop-color="#FF7A00"/>
<stop offset="0.5" stop-color="#5FE1C7"/>
<stop offset="1" stop-color="#7B2CBF"/>
</linearGradient>
<linearGradient id="paint37_linear_287_1277" x1="0" y1="105.213" x2="215.361" y2="105.213" gradientUnits="userSpaceOnUse">
<stop stop-color="#FF7A00"/>
<stop offset="0.5" stop-color="#5FE1C7"/>
<stop offset="1" stop-color="#7B2CBF"/>
</linearGradient>
<linearGradient id="paint38_linear_287_1277" x1="0" y1="105.213" x2="215.361" y2="105.213" gradientUnits="userSpaceOnUse">
<stop stop-color="#FF7A00"/>
<stop offset="0.5" stop-color="#5FE1C7"/>
<stop offset="1" stop-color="#7B2CBF"/>
</linearGradient>
<linearGradient id="paint39_linear_287_1277" x1="0" y1="105.213" x2="215.361" y2="105.213" gradientUnits="userSpaceOnUse">
<stop stop-color="#FF7A00"/>
<stop offset="0.5" stop-color="#5FE1C7"/>
<stop offset="1" stop-color="#7B2CBF"/>
</linearGradient>
<linearGradient id="paint40_linear_287_1277" x1="0" y1="105.213" x2="215.361" y2="105.213" gradientUnits="userSpaceOnUse">
<stop stop-color="#FF7A00"/>
<stop offset="0.5" stop-color="#5FE1C7"/>
<stop offset="1" stop-color="#7B2CBF"/>
</linearGradient>
<linearGradient id="paint41_linear_287_1277" x1="0" y1="105.213" x2="215.361" y2="105.213" gradientUnits="userSpaceOnUse">
<stop stop-color="#FF7A00"/>
<stop offset="0.5" stop-color="#5FE1C7"/>
<stop offset="1" stop-color="#7B2CBF"/>
</linearGradient>
<linearGradient id="paint42_linear_287_1277" x1="0" y1="105.213" x2="215.361" y2="105.213" gradientUnits="userSpaceOnUse">
<stop stop-color="#FF7A00"/>
<stop offset="0.5" stop-color="#5FE1C7"/>
<stop offset="1" stop-color="#7B2CBF"/>
</linearGradient>
<linearGradient id="paint43_linear_287_1277" x1="0" y1="105.213" x2="215.361" y2="105.213" gradientUnits="userSpaceOnUse">
<stop stop-color="#FF7A00"/>
<stop offset="0.5" stop-color="#5FE1C7"/>
<stop offset="1" stop-color="#7B2CBF"/>
</linearGradient>
</defs>
</svg>
