<svg width="256" height="250" viewBox="0 0 256 250" fill="none" xmlns="http://www.w3.org/2000/svg">
<g clip-path="url(#clip0_122_166)">
<rect width="256" height="250" fill="black"/>
<path d="M167.348 226.133V249.837" stroke="#FF7A00" stroke-width="0.948148"/>
<path d="M25.126 226.133H73.4815H185.837" stroke="#FF7A00" stroke-width="0.948148"/>
<path d="M0 0L0.474074 0.00855758L25.5011 25.1259H73.9556V182.993H92.4444H125.156L126.104 183.863L148.385 204.326V169.719L185.837 132.267V226.133H230.874L230.95 226.206L255.526 249.837V186.785V169.719V152.652V135.585V118.519V100.978V83.9111V67.3185V0.474074H185.837V25.1259V43.1407L134.637 95.2889" stroke="url(#paint0_linear_122_166)" stroke-width="0.948148"/>
<path d="M208.119 197.215V49.7778L129.422 129.422L102.497 102.4L76.326 76.1343L25.5011 25.1259V67.3185H0.474121V0.00858116L92.4445 0.239554L93.1556 0.24134L111.407 0.287177L130.37 0.3348V48.8297L90.5482 89.6" stroke="url(#paint1_linear_122_166)" stroke-width="0.948148" stroke-linecap="round"/>
<path d="M97.1855 127.526L129.423 160.237L182.045 106.667" stroke="#FF7A00" stroke-width="0.948148"/>
<path d="M168.296 0.430065L185.837 0.474116" stroke="#FF7A00" stroke-width="0.948148"/>
<path d="M255.526 0.474125L230.95 24.5864" stroke="#7B2CBF" stroke-width="0.948148"/>
<path d="M185.837 25.126H230.4L230.95 24.5864" stroke="#FF7A00" stroke-width="0.948148"/>
<path d="M185.837 250.785V226.133" stroke="#FF7A00" stroke-width="0.948148"/>
<path d="M148.385 204.326L49.3037 204.8V85.3333" stroke="url(#paint2_linear_122_166)" stroke-width="0.948148"/>
<path d="M25.501 186.785V226.607" stroke="#7B2CBF" stroke-width="0.948148"/>
<path d="M92.4443 0.239521V28.4444" stroke="#FF7A00" stroke-width="0.948148"/>
<path d="M111.407 0.287188V41.2445L76.3257 76.1343" stroke="#FF7A00" stroke-width="0.948148"/>
<path d="M130.371 0.334793L149.334 0.382416" stroke="#FF7A00" stroke-width="0.948148"/>
<path d="M149.334 28.4444V0.382399L168.297 0.430022V36.0296L102.498 102.4" stroke="#FF7A00" stroke-width="0.948148"/>
<path d="M230.95 24.5864V67.3186" stroke="#FF7A00" stroke-width="0.948148"/>
<path d="M230.95 186.785V226.206" stroke="#FF7A00" stroke-width="0.948148"/>
<path d="M255.526 67.3186H230.95V83.9112H255.526" stroke="#FF7A00" stroke-width="0.948148"/>
<path d="M230.95 83.9111V118.519" stroke="#FF7A00" stroke-width="0.948148"/>
<path d="M230.874 100.978H255.526" stroke="#FF7A00" stroke-width="0.948148"/>
<path d="M255.526 118.519H230.95V135.585H255.526" stroke="#FF7A00" stroke-width="0.948148"/>
<path d="M230.95 135.585V152.652" stroke="#FF7A00" stroke-width="0.948148"/>
<path d="M255.526 152.652H230.95V169.719H255.526" stroke="#FF7A00" stroke-width="0.948148"/>
<path d="M230.95 169.719V186.785" stroke="#FF7A00" stroke-width="0.948148"/>
<path d="M230.95 186.785H255.526" stroke="#FF7A00" stroke-width="0.948148"/>
<path d="M167.236 226.607V186.311" stroke="#FF7A00" stroke-width="0.948148"/>
<path d="M148.622 226.605V250.788" stroke="#FF7A00" stroke-width="0.948148"/>
<path d="M129.896 227.081V250.785" stroke="#FF7A00" stroke-width="0.948148"/>
<path d="M111.644 226.605V250.788" stroke="#FF7A00" stroke-width="0.948148"/>
<path d="M92.207 226.605V250.788" stroke="#FF7A00" stroke-width="0.948148"/>
<path d="M73.7188 226.605V250.788" stroke="#FF7A00" stroke-width="0.948148"/>
<path d="M92.4443 182.993V150.756L126.104 183.863" stroke="#FF7A00" stroke-width="0.948148"/>
<path d="M25.501 67.3186V83.9112" stroke="#FF7A00" stroke-width="0.948148"/>
<path d="M0.474121 83.9111H25.5011" stroke="#FF7A00" stroke-width="0.948148"/>
<path d="M25.501 83.9111V100.978" stroke="#FF7A00" stroke-width="0.948148"/>
<path d="M0.474121 100.978H25.5011" stroke="#FF7A00" stroke-width="0.948148"/>
<path d="M25.501 100.978V118.519" stroke="#FF7A00" stroke-width="0.948148"/>
<path d="M0.474121 118.519H25.5011" stroke="#FF7A00" stroke-width="0.948148"/>
<path d="M25.501 118.519V135.585" stroke="#FF7A00" stroke-width="0.948148"/>
<path d="M0.474121 135.585H25.5011" stroke="#FF7A00" stroke-width="0.948148"/>
<path d="M25.501 135.585V152.652" stroke="#FF7A00" stroke-width="0.948148"/>
<path d="M0.474121 152.652H25.5011" stroke="#FF7A00" stroke-width="0.948148"/>
<path d="M25.501 152.652V169.719" stroke="#FF7A00" stroke-width="0.948148"/>
<path d="M0.474121 169.719H25.5011" stroke="#FF7A00" stroke-width="0.948148"/>
<path d="M25.501 169.719V186.785" stroke="#FF7A00" stroke-width="0.948148"/>
<path d="M0.474121 186.785H25.5011" stroke="#FF7A00" stroke-width="0.948148"/>
<path d="M148.385 95.2889L205.748 36.0296H219.97L219.496 101.452" stroke="url(#paint3_linear_122_166)" stroke-width="0.948148"/>
<path d="M28.9185 135.585H32.711V129.422L35.0814 134.637L37.4518 100.978L39.3481 158.341L41.7185 135.585H45.511" stroke="url(#paint4_linear_122_166)" stroke-width="0.948148"/>
<path d="M53.5703 135.585H58.7851L60.6814 100.978L63.0518 158.341L65.8962 135.585H70.1629" stroke="url(#paint5_linear_122_166)" stroke-width="0.948148"/>
<path d="M99.0815 143.17L129.422 173.511L184.889 118.519" stroke="#7B2CBF" stroke-width="0.948148"/>
<path d="M113.304 129.422L129.422 145.067L170.193 103.822" stroke="#7B2CBF" stroke-width="0.948148"/>
<path d="M45.9854 215.704H100.03L102.4 210.489L105.245 219.97L108.563 215.704H156.445" stroke="url(#paint6_linear_122_166)" stroke-width="0.948148"/>
<path d="M122.311 194.844H63.0518V166.4" stroke="#7B2CBF" stroke-width="0.948148"/>
<path d="M191.052 135.585H193.896L194.37 128.474L197.215 157.393L200.059 135.585H205.274" stroke="url(#paint7_linear_122_166)" stroke-width="0.948148"/>
<path d="M12.7998 26.0741V58.7852" stroke="#6CD3D3" stroke-width="0.948148"/>
<path d="M25.501 12.326H66.3703" stroke="#6CD3D3" stroke-width="0.948148"/>
<path d="M194.371 12.326H230.95" stroke="#6CD3D3" stroke-width="0.948148"/>
<path d="M243.674 25.126V58.3112" stroke="#6CD3D3" stroke-width="0.948148"/>
<path d="M243.674 194.844V226.133" stroke="#6CD3D3" stroke-width="0.948148"/>
<path d="M194.371 238.459H228.504" stroke="#6CD3D3" stroke-width="0.948148"/>
<path d="M25.501 238.459H65.8962" stroke="#6CD3D3" stroke-width="0.948148"/>
<path d="M12.7998 194.844V221.393" stroke="#6CD3D3" stroke-width="0.948148"/>
<path d="M211.911 134.637H215.23L215.704 128L217.126 133.215L219.496 98.6074L221.393 156.919L224.237 134.637H227.556" stroke="url(#paint8_linear_122_166)" stroke-width="0.948148"/>
<circle cx="149.333" cy="30.3408" r="2.37037" fill="#7B2CBF"/>
<circle cx="149.333" cy="30.3407" r="1.42222" fill="black"/>
<circle cx="134.163" cy="95.763" r="2.37037" fill="#7B2CBF"/>
<circle cx="134.163" cy="95.763" r="1.42222" fill="black"/>
<circle cx="97.1853" cy="127.052" r="2.37037" fill="#7B2CBF"/>
<circle cx="97.1854" cy="127.052" r="1.42222" fill="black"/>
<circle cx="49.3039" cy="83.9111" r="2.84444" fill="#7B2CBF"/>
<circle cx="49.3038" cy="83.911" r="1.70667" fill="black"/>
<circle cx="208.118" cy="199.111" r="2.37037" fill="#7B2CBF"/>
<circle cx="208.119" cy="199.111" r="1.42222" fill="black"/>
<circle cx="182.519" cy="106.193" r="2.37037" fill="#7B2CBF"/>
<circle cx="182.519" cy="106.193" r="1.42222" fill="black"/>
<circle cx="167.348" cy="184.889" r="2.37037" fill="#7B2CBF"/>
<circle cx="167.348" cy="184.889" r="1.42222" fill="black"/>
<circle cx="92.4441" cy="30.3408" r="2.37037" fill="#7B2CBF"/>
<circle cx="92.4442" cy="30.3407" r="1.42222" fill="black"/>
<line x1="0.474074" y1="67.3186" x2="0.474074" y2="250.311" stroke="#7B2CBF" stroke-width="0.948148"/>
<line y1="249.837" x2="256" y2="249.837" stroke="#7B2CBF" stroke-width="0.948148"/>
</g>
<defs>
<linearGradient id="paint0_linear_122_166" x1="127.763" y1="0" x2="127.763" y2="249.837" gradientUnits="userSpaceOnUse">
<stop stop-color="#7B2CBF"/>
<stop offset="1" stop-color="#FF7A00"/>
</linearGradient>
<linearGradient id="paint1_linear_122_166" x1="104.296" y1="0.00858116" x2="104.296" y2="197.215" gradientUnits="userSpaceOnUse">
<stop stop-color="#7B2CBF"/>
<stop offset="1" stop-color="#FF7A00"/>
</linearGradient>
<linearGradient id="paint2_linear_122_166" x1="98.8445" y1="85.3333" x2="98.8445" y2="204.8" gradientUnits="userSpaceOnUse">
<stop stop-color="#7B2CBF"/>
<stop offset="1" stop-color="#FF7A00"/>
</linearGradient>
<linearGradient id="paint3_linear_122_166" x1="184.178" y1="36.0296" x2="184.178" y2="101.452" gradientUnits="userSpaceOnUse">
<stop stop-color="#FF7A00"/>
<stop offset="1" stop-color="#347B6D"/>
</linearGradient>
<linearGradient id="paint4_linear_122_166" x1="37.2148" y1="100.978" x2="37.2148" y2="158.341" gradientUnits="userSpaceOnUse">
<stop stop-color="#347B6D"/>
<stop offset="1" stop-color="#5FE1C7"/>
</linearGradient>
<linearGradient id="paint5_linear_122_166" x1="61.8666" y1="100.978" x2="61.8666" y2="158.341" gradientUnits="userSpaceOnUse">
<stop stop-color="#347B6D"/>
<stop offset="1" stop-color="#5FE1C7"/>
</linearGradient>
<linearGradient id="paint6_linear_122_166" x1="45.9854" y1="215.23" x2="156.445" y2="215.23" gradientUnits="userSpaceOnUse">
<stop stop-color="#347B6D"/>
<stop offset="1" stop-color="#5FE1C7"/>
</linearGradient>
<linearGradient id="paint7_linear_122_166" x1="198.163" y1="128.474" x2="198.163" y2="157.393" gradientUnits="userSpaceOnUse">
<stop stop-color="#347B6D"/>
<stop offset="1" stop-color="#5FE1C7"/>
</linearGradient>
<linearGradient id="paint8_linear_122_166" x1="219.733" y1="98.6074" x2="219.733" y2="156.919" gradientUnits="userSpaceOnUse">
<stop stop-color="#347B6D"/>
<stop offset="1" stop-color="#5FE1C7"/>
</linearGradient>
<clipPath id="clip0_122_166">
<rect width="256" height="250" fill="white"/>
</clipPath>
</defs>
</svg>
