<svg width="2370" height="2456" viewBox="0 0 2370 2456" fill="none" xmlns="http://www.w3.org/2000/svg">
<path d="M1547.12 2067.31V2285.36" stroke="#FF7A00" stroke-width="20.5761"/>
<path d="M237.322 2090.49H682.649H1717.38" stroke="#FF7A00" stroke-width="20.5761"/>
<path d="M5.93164 10.2864L10.2976 10.3651L240.782 241.42H687.02V1693.64H857.292H1158.54L1167.27 1701.65L1372.47 1889.88V1571.53L1717.38 1227.01V2090.49H2132.15L2132.85 2091.16L2359.18 2308.54V1728.53V1571.53V1414.53V1257.54V1100.54V939.183V782.186V629.551V14.6474H1717.38V241.42V407.139L1245.86 886.851" stroke="url(#paint0_linear_267_480)" stroke-width="20.5761"/>
<path d="M1922.57 1824.47V468.194L1197.83 1200.85L949.862 952.267L708.839 710.648L240.772 241.421V629.552H10.2871V10.3662L857.282 12.4909L863.831 12.5074L1031.92 12.929L1206.56 13.3671V459.472L839.818 834.52" stroke="url(#paint1_linear_267_480)" stroke-width="20.5761"/>
<path d="M900.951 1183.4L1197.84 1484.31L1682.46 991.516" stroke="#FF7A00" stroke-width="20.5761"/>
<path d="M1555.85 14.2417L1717.39 14.6469" stroke="#FF7A00" stroke-width="20.5761"/>
<path d="M2359.17 14.6477L2132.84 236.457" stroke="#7B2CBF" stroke-width="20.5761"/>
<path d="M1717.39 241.42H2127.79L2132.86 236.457" stroke="#FF7A00" stroke-width="20.5761"/>
<path d="M1717.39 2317.26V2090.49" stroke="#FF7A00" stroke-width="20.5761"/>
<path d="M1372.46 1889.88L459.98 1894.25V795.27" stroke="url(#paint2_linear_267_480)" stroke-width="20.5761"/>
<path d="M240.771 1728.53V2094.85" stroke="#7B2CBF" stroke-width="20.5761"/>
<path d="M857.287 12.4893V271.947" stroke="#FF7A00" stroke-width="20.5761"/>
<path d="M1031.93 12.929V389.696L708.85 710.648" stroke="#FF7A00" stroke-width="20.5761"/>
<path d="M1206.55 13.3662L1381.19 13.8043" stroke="#FF7A00" stroke-width="20.5761"/>
<path d="M1381.21 271.947V13.804L1555.85 14.242V341.723L949.877 952.266" stroke="#FF7A00" stroke-width="20.5761"/>
<path d="M2132.84 236.457V629.551" stroke="#FF7A00" stroke-width="20.5761"/>
<path d="M2132.84 1728.53V2091.16" stroke="#FF7A00" stroke-width="20.5761"/>
<path d="M2359.17 629.551H2132.84V782.187H2359.17" stroke="#FF7A00" stroke-width="20.5761"/>
<path d="M2132.84 782.187V1100.54" stroke="#FF7A00" stroke-width="20.5761"/>
<path d="M2132.15 939.183H2359.18" stroke="#FF7A00" stroke-width="20.5761"/>
<path d="M2359.17 1100.54H2132.84V1257.54H2359.17" stroke="#FF7A00" stroke-width="20.5761"/>
<path d="M2132.84 1257.54V1414.53" stroke="#FF7A00" stroke-width="20.5761"/>
<path d="M2359.17 1414.54H2132.84V1571.53H2359.17" stroke="#FF7A00" stroke-width="20.5761"/>
<path d="M2132.84 1571.53V1728.53" stroke="#FF7A00" stroke-width="20.5761"/>
<path d="M2132.84 1728.53H2359.17" stroke="#FF7A00" stroke-width="20.5761"/>
<path d="M1546.08 2094.85V1724.17" stroke="#FF7A00" stroke-width="20.5761"/>
<path d="M1374.67 2094.83V2317.29" stroke="#FF7A00" stroke-width="20.5761"/>
<path d="M1202.18 2099.21V2317.26" stroke="#FF7A00" stroke-width="20.5761"/>
<path d="M1034.12 2094.83V2317.29" stroke="#FF7A00" stroke-width="20.5761"/>
<path d="M855.1 2094.83V2317.29" stroke="#FF7A00" stroke-width="20.5761"/>
<path d="M684.826 2094.83V2317.29" stroke="#FF7A00" stroke-width="20.5761"/>
<path d="M857.287 1693.64V1397.09L1167.27 1701.65" stroke="#FF7A00" stroke-width="20.5761"/>
<path d="M240.771 629.551V782.187" stroke="#FF7A00" stroke-width="20.5761"/>
<path d="M10.2871 782.187H240.772" stroke="#FF7A00" stroke-width="20.5761"/>
<path d="M240.771 782.187V939.183" stroke="#FF7A00" stroke-width="20.5761"/>
<path d="M10.2871 939.183H240.772" stroke="#FF7A00" stroke-width="20.5761"/>
<path d="M240.771 939.183V1100.54" stroke="#FF7A00" stroke-width="20.5761"/>
<path d="M10.2871 1100.54H240.772" stroke="#FF7A00" stroke-width="20.5761"/>
<path d="M240.771 1100.54V1257.54" stroke="#FF7A00" stroke-width="20.5761"/>
<path d="M10.2871 1257.54H240.772" stroke="#FF7A00" stroke-width="20.5761"/>
<path d="M240.771 1257.54V1414.53" stroke="#FF7A00" stroke-width="20.5761"/>
<path d="M10.2871 1414.54H240.772" stroke="#FF7A00" stroke-width="20.5761"/>
<path d="M240.771 1414.54V1571.53" stroke="#FF7A00" stroke-width="20.5761"/>
<path d="M10.2871 1571.53H240.772" stroke="#FF7A00" stroke-width="20.5761"/>
<path d="M240.771 1571.53V1728.53" stroke="#FF7A00" stroke-width="20.5761"/>
<path d="M10.2871 1728.53H240.772" stroke="#FF7A00" stroke-width="20.5761"/>
<path d="M1372.47 886.85L1900.75 341.723H2031.73L2027.36 943.543" stroke="url(#paint3_linear_267_480)" stroke-width="20.5761"/>
<path d="M272.256 1257.54H307.183V1200.84L329.013 1248.81L350.843 939.183L368.307 1466.87L390.136 1257.54H425.064" stroke="url(#paint4_linear_267_480)" stroke-width="4.10163"/>
<path d="M499.275 1257.54H547.301L564.765 939.183L586.594 1466.87L612.79 1257.54H652.084" stroke="url(#paint5_linear_267_480)" stroke-width="4.10163"/>
<path d="M918.412 1327.31L1197.83 1606.42L1708.65 1100.54" stroke="#7B2CBF" stroke-width="20.5761"/>
<path d="M1049.39 1200.84L1197.83 1344.76L1573.3 965.349" stroke="#7B2CBF" stroke-width="20.5761"/>
<path d="M429.422 1994.55H927.14L948.97 1946.58L975.166 2033.8L1005.73 1994.55H1446.69" stroke="url(#paint6_linear_267_480)" stroke-width="20.5761"/>
<path d="M1132.35 1802.66H586.604V1541" stroke="#7B2CBF" stroke-width="20.5761"/>
<path d="M1765.42 1257.54H1791.61L1795.98 1192.12L1822.17 1458.15L1848.37 1257.54H1896.39" stroke="url(#paint7_linear_267_480)" stroke-width="4.10163"/>
<path d="M123.803 250.142V551.052" stroke="#6CD3D3" stroke-width="20.5761"/>
<path d="M240.771 123.673H617.154" stroke="#6CD3D3" stroke-width="20.5761"/>
<path d="M1795.95 123.673H2132.83" stroke="#6CD3D3" stroke-width="20.5761"/>
<path d="M2250.03 241.421V546.692" stroke="#6CD3D3" stroke-width="20.5761"/>
<path d="M2250.03 1802.66V2090.49" stroke="#6CD3D3" stroke-width="20.5761"/>
<path d="M1795.95 2203.88H2110.3" stroke="#6CD3D3" stroke-width="20.5761"/>
<path d="M240.771 2203.88H612.788" stroke="#6CD3D3" stroke-width="20.5761"/>
<path d="M123.803 1802.66V2046.88" stroke="#6CD3D3" stroke-width="20.5761"/>
<path d="M1957.51 1248.82H1988.08L1992.44 1187.76L2005.54 1235.73L2027.37 917.379L2044.83 1453.78L2071.03 1248.82H2101.59" stroke="url(#paint8_linear_267_480)" stroke-width="4.10163"/>
<ellipse cx="1381.19" cy="289.391" rx="21.8298" ry="21.8051" fill="#7B2CBF"/>
<ellipse cx="1381.2" cy="289.391" rx="13.0979" ry="13.0831" fill="black"/>
<ellipse cx="1241.52" cy="891.211" rx="21.8298" ry="21.8051" fill="#7B2CBF"/>
<ellipse cx="1241.5" cy="891.212" rx="13.0979" ry="13.0831" fill="black"/>
<ellipse cx="900.953" cy="1179.04" rx="21.8298" ry="21.8051" fill="#7B2CBF"/>
<ellipse cx="900.947" cy="1179.04" rx="13.0979" ry="13.0831" fill="black"/>
<ellipse cx="459.995" cy="782.186" rx="26.1957" ry="26.1661" fill="#7B2CBF"/>
<ellipse cx="460.001" cy="782.186" rx="15.7174" ry="15.6997" fill="black"/>
<ellipse cx="1922.57" cy="1841.91" rx="21.8298" ry="21.8051" fill="#7B2CBF"/>
<ellipse cx="1922.55" cy="1841.92" rx="13.0979" ry="13.0831" fill="black"/>
<ellipse cx="1686.8" cy="987.154" rx="21.8298" ry="21.8051" fill="#7B2CBF"/>
<ellipse cx="1686.83" cy="987.155" rx="13.0979" ry="13.0831" fill="black"/>
<ellipse cx="1547.11" cy="1711.08" rx="21.8298" ry="21.8051" fill="#7B2CBF"/>
<ellipse cx="1547.12" cy="1711.08" rx="13.0979" ry="13.0831" fill="black"/>
<ellipse cx="857.3" cy="289.391" rx="21.8298" ry="21.8051" fill="#7B2CBF"/>
<ellipse cx="857.299" cy="289.391" rx="13.0979" ry="13.0831" fill="black"/>
<path d="M10.5547 629.551L10.5547 2312.9" stroke="#7B2CBF" stroke-width="20.5761"/>
<path d="M5.93164 2308.28H2363.54" stroke="#7B2CBF" stroke-width="20.5761"/>
<defs>
<linearGradient id="paint0_linear_267_480" x1="1182.56" y1="10.2864" x2="1182.56" y2="2308.54" gradientUnits="userSpaceOnUse">
<stop stop-color="#7B2CBF"/>
<stop offset="1" stop-color="#FF7A00"/>
</linearGradient>
<linearGradient id="paint1_linear_267_480" x1="966.43" y1="10.3662" x2="966.43" y2="1824.47" gradientUnits="userSpaceOnUse">
<stop stop-color="#7B2CBF"/>
<stop offset="1" stop-color="#FF7A00"/>
</linearGradient>
<linearGradient id="paint2_linear_267_480" x1="916.222" y1="795.27" x2="916.222" y2="1894.25" gradientUnits="userSpaceOnUse">
<stop stop-color="#7B2CBF"/>
<stop offset="1" stop-color="#FF7A00"/>
</linearGradient>
<linearGradient id="paint3_linear_267_480" x1="1702.1" y1="341.723" x2="1702.1" y2="943.543" gradientUnits="userSpaceOnUse">
<stop stop-color="#FF7A00"/>
<stop offset="1" stop-color="#347B6D"/>
</linearGradient>
<linearGradient id="paint4_linear_267_480" x1="348.66" y1="939.183" x2="348.66" y2="1466.87" gradientUnits="userSpaceOnUse">
<stop stop-color="#347B6D"/>
<stop offset="1" stop-color="#5FE1C7"/>
</linearGradient>
<linearGradient id="paint5_linear_267_480" x1="575.68" y1="939.183" x2="575.68" y2="1466.87" gradientUnits="userSpaceOnUse">
<stop stop-color="#347B6D"/>
<stop offset="1" stop-color="#5FE1C7"/>
</linearGradient>
<linearGradient id="paint6_linear_267_480" x1="429.422" y1="1990.19" x2="1446.69" y2="1990.19" gradientUnits="userSpaceOnUse">
<stop stop-color="#347B6D"/>
<stop offset="1" stop-color="#5FE1C7"/>
</linearGradient>
<linearGradient id="paint7_linear_267_480" x1="1830.91" y1="1192.12" x2="1830.91" y2="1458.15" gradientUnits="userSpaceOnUse">
<stop stop-color="#347B6D"/>
<stop offset="1" stop-color="#5FE1C7"/>
</linearGradient>
<linearGradient id="paint8_linear_267_480" x1="2029.55" y1="917.379" x2="2029.55" y2="1453.78" gradientUnits="userSpaceOnUse">
<stop stop-color="#347B6D"/>
<stop offset="1" stop-color="#5FE1C7"/>
</linearGradient>
</defs>
</svg>
